<?xml version="1.0" encoding="UTF-8" standalone="no"?>
<svg
   xmlns:dc="http://purl.org/dc/elements/1.1/"
   xmlns:cc="http://creativecommons.org/ns#"
   xmlns:rdf="http://www.w3.org/1999/02/22-rdf-syntax-ns#"
   xmlns:svg="http://www.w3.org/2000/svg"
   xmlns="http://www.w3.org/2000/svg"
   viewBox="0 0 380 545.33331"
   height="545.33331"
   width="380"
   xml:space="preserve"
   id="svg2"
   version="1.1"><metadata
     id="metadata8"><rdf:RDF><cc:Work
         rdf:about=""><dc:format>image/svg+xml</dc:format><dc:type
           rdf:resource="http://purl.org/dc/dcmitype/StillImage" /></cc:Work></rdf:RDF></metadata><defs
     id="defs6" /><g
     transform="matrix(1.3333333,0,0,-1.3333333,0,545.33333)"
     id="g10"><g
       transform="scale(0.1)"
       id="g12"><path
         id="path14"
         style="fill:#2c3c98;fill-opacity:1;fill-rule:evenodd;stroke:none"
         d="m 1675.29,3857.27 45.86,-103.06 -89.06,0.24 z m 684.55,7.55 c 55.4,0 128.68,0.02 128.68,-75.04 -0.05,-91.42 -58.7,-88.12 -128.68,-90.75 z m -90.96,35.84 c 11.42,-11.91 16.33,-27.09 16.33,-43.62 v -158.5 c 0,-14.84 -8.26,-25.86 -18.72,-35.34 h 130.79 c 76.17,0 159.83,37.43 158.31,127.33 -1.48,87.87 -113.5,110.13 -178.73,110.13 z m -631.03,0 9.97,-22.71 -84.11,-179.9 -35.01,-34.85 h 94.08 l -27.71,22.21 26.01,49.84 110.36,-0.25 18.24,-43.27 -17.02,-28.53 h 128.84 l -33.06,23.91 -96.27,213.55 z m -365.61,-0.18 c 12.64,-13.69 17.74,-32.18 17.74,-50.43 v -143.86 c 0.25,-16.33 -5.59,-32.43 -18.47,-42.99 h 202.06 l 37.87,55.24 c -8.26,0.24 -17.26,1.92 -24.06,-3.61 -16.29,-11.04 -36.23,-14.65 -55.67,-14.65 h -69.04 v 154.55 c 0,13.97 6.87,32.38 18.71,45.75 z M 939,3781.98 c 4.906,-79.74 85.43,-122.06 158.21,-120.15 27.22,0.24 55.91,0.24 80.22,14.1 11.18,6.81 21.64,18.72 20.66,32.58 v 63.93 h -93.34 l 37.58,-33.55 -0.39,-41.08 c -16.53,-11.67 -37.19,-20.9 -57.86,-16.04 -46.69,6.95 -68.53,55.36 -69.22,97.41 -1.02,61.96 29.28,112.36 105.93,102.41 28.68,-5.35 45.46,-31.85 58.1,-55.67 l 19.2,75.6 c -8.26,-3.89 -16.53,-9.47 -26.25,-8.02 -24.46,2.37 -47.21,9.51 -70.32,9.77 -68.45,0.77 -167.524,-39.94 -162.52,-121.29 z m -350.586,118.43 c 12.399,-10.81 26.008,-21.37 33.547,-36.26 4.133,-7.44 2.918,-16.08 3.156,-24.25 l 0.199,-143.33 c 0.024,-17.48 -25.918,-23.77 -39.531,-33.37 h 94.031 c -8.023,9.6 -17.66,19.41 -17.503,33.13 v 146.69 L 845.801,3663.2 h 20.121 l 0.105,189.19 c 0.012,22.12 19.934,37.21 37.68,47.77 -31.117,0.72 -61.992,0.25 -93.105,0.25 13.371,-13.45 17.414,-32.11 17.503,-50.66 l 0.434,-93.16 -150.18,143.57 z m 1320.546,0.1 c 12.4,-10.81 26.01,-21.37 33.55,-36.26 4.13,-7.44 2.91,-16.08 3.16,-24.25 l 0.19,-143.33 c 0.03,-17.47 -25.91,-23.77 -39.53,-33.37 h 94.03 c -8.02,9.6 -17.66,19.41 -17.5,33.13 v 146.7 l 183.49,-179.83 h 20.12 l 0.1,189.19 c 0.02,22.12 19.94,37.21 37.68,47.78 -31.11,0.71 -61.98,0.24 -93.1,0.24 13.37,-13.45 17.41,-32.1 17.5,-50.66 l 0.44,-93.15 -150.19,143.57 z m -1596.948,0.15 34.035,-38.73 -0.078,-165.29 -35.899,-33.44 h 222.672 l 18.235,52.93 -58.344,-16.56 -88.731,0.44 v 72.17 l 61.746,-0.23 30.387,-17.81 18.477,55.34 -110.61,0.24 v 54.37 l 96.024,0.2 33.058,-18.24 18.723,54.61 z m -295.844,186.1 -0.2422,-611.14 2806.7742,0.24 v 610.9 H 16.168" /><path
         id="path16"
         style="fill:#2c3c98;fill-opacity:1;fill-rule:evenodd;stroke:none"
         d="M 9.41016,3388.53 V 1828.93 C 4.95313,1240.58 136.586,811.191 368.027,589.504 613.926,353.969 814.746,175.434 1440.53,7.45703 1951.73,149.461 2475.52,428.508 2712.97,872.336 c 110.1,205.794 131.07,467.584 131.07,698.594 v 1817.6 H 9.41016" /><path
         id="path18"
         style="fill:#ffffff;fill-opacity:1;fill-rule:evenodd;stroke:none"
         d="M 91.2813,3290.87 V 1821.36 C 87.082,1267 211.113,862.422 429.184,653.539 660.879,431.609 850.098,263.387 1439.73,105.113 c 481.67,133.805 975.21,396.731 1198.94,814.918 103.74,193.909 123.49,440.579 123.49,658.239 v 1712.6 H 91.2813" /><path
         id="path20"
         style="fill:#2c3c98;fill-opacity:1;fill-rule:evenodd;stroke:none"
         d="m 1196.39,1267.11 c 21.39,-11.18 33.31,-33.79 40.84,-55.91 4.13,-13.37 15.8,-22.12 27.72,-28.2 2.43,9.72 3.89,19.69 6.07,29.41 10.45,-19.45 17.5,-40.35 22.85,-61.5 4.62,-18.96 5.35,-40.36 -5.59,-57.37 -11.42,-17.99 -31.36,-27.47 -50.8,-34.04 6.31,-7.77 11.91,-17.25 21.38,-22.36 4.87,2.43 9.73,5.11 14.59,7.78 -0.48,-17.75 -4.61,-35.49 -13.85,-50.807 -8.51,-12.883 -3.65,-28.929 -4.62,-43.269 -5.84,-2.918 -12.89,-4.621 -17.02,-9.969 -4.37,-10.211 0.49,-27.957 14.34,-25.77 15.32,6.809 27.23,21.637 28.69,38.411 2.43,13.371 -6.32,24.554 -11.67,35.734 10.21,-4.375 20.91,-9.238 27.95,-18.23 16.53,-19.207 17.75,-50.563 1.71,-70.743 -13.37,-18.472 -34.77,-29.414 -55.19,-38.652 -8.02,-3.402 -9.23,-13.125 -10.2,-20.664 -0.98,-25.035 -20.43,-43.027 -37.44,-59.313 -0.49,20.18 0.97,40.352 -0.73,60.532 0.24,5.832 -5.59,8.019 -9.48,10.937 -15.07,-31.359 -11.91,-68.793 -31.6,-98.207 -10.95,-17.504 -30.39,-28.933 -51.3,-28.687 7.3,15.312 16.05,30.14 19.94,46.675 6.32,21.391 0.97,43.512 -0.49,65.149 -4.86,-0.242 -9.72,-0.484 -14.59,-0.731 -2.67,-37.925 -2.91,-79.003 -26.01,-111.339 -12.39,-18.715 -34.27,-26.497 -53.48,-36.461 14.1,21.632 27.72,45.214 26.98,71.711 -1.94,10.941 -5.83,21.394 -11.42,30.875 -18.96,-21.149 -6.81,-53.243 -24.06,-74.875 -10.7,-17.016 -30.394,-28.684 -50.812,-26.743 -15.075,1.704 -34.035,4.133 -41.571,19.207 -3.644,7.536 0.489,14.586 5.106,20.418 13.613,-4.617 27.957,-10.695 41.812,-2.429 -8.992,23.582 -20.175,46.429 -29.898,69.769 -6.563,16.043 -6.078,33.301 -8.75,50.078 -4.379,-2.918 -10.211,-4.863 -12.645,-9.964 -1.457,-31.364 -1.457,-65.637 17.016,-92.622 -37.676,20.907 -71.953,53.965 -82.406,97.239 -7.535,29.902 -0.973,60.531 4.371,90.187 -15.797,10.942 -28.68,28.199 -26.008,48.129 -3.645,30.394 19.207,60.294 49.594,64.184 -9.481,-20.42 -11.188,-45.461 0.972,-65.153 4.86,-8.507 17.016,-12.64 24.793,-5.589 11.184,8.992 20.418,21.148 26.012,34.522 -2.918,24.06 -12.156,46.91 -19.203,70 -2.43,9.24 -8.27,18.97 -5.105,28.69 4.859,10.21 17.257,10.21 26.738,12.16 0.972,-8.76 2.676,-17.26 4.863,-25.77 10.695,5.1 27.223,4.86 30.387,19.2 10.453,35.74 -1.703,76.58 18.719,109.88 12.645,19.45 36.945,25.52 59.065,25.28 -3.89,-6.81 -8.5,-13.12 -10.45,-20.66 0.24,-5.83 3.16,-10.7 5.11,-16.29 12.4,12.89 19.2,32.58 36.95,39.14 14.1,2.43 28.44,-0.97 42.3,-2.91 -8.76,-3.89 -18.97,-7.54 -21.4,-17.99 19.45,5.34 37.44,15.31 57.37,19.2 -4.86,-4.86 -12.39,-8.02 -14.09,-15.32 -2.92,-8.26 -0.98,-21.87 9.96,-22.36 14.34,0 31.84,2.43 41.08,14.83 5.59,13.61 -1.94,27.95 -3.4,41.57 z m -16.53,-166.28 c -1.22,-7.29 -0.73,-14.58 -0.97,-22.12 -11.18,1.46 -17.75,9.97 -19.69,20.66 -2.92,-4.62 -5.84,-9.48 -8.75,-14.34 7.29,-6.81 12.15,-15.8 20.17,-21.88 6.67,0.71 17.93,-0.83 22.48,3.11 10,8.64 11.72,25.41 22.26,33.6 -4.87,3.89 -9,8.75 -14.84,11.18 -8.5,2.67 -15.8,-4.13 -20.66,-10.21 z m -87.02,13.91 c 0.05,6.38 -5.67,11.8 -5.6,18.18 -3.64,-8.02 -9.48,-14.83 -18.47,-17.02 -2.92,15.56 7.53,27.23 16.77,37.69 -11.91,0.24 -23.58,0.24 -35.49,0.24 0,-9.48 -0.25,-18.97 -0.25,-28.2 -2.18,-15.32 15.9,-28.02 43.04,-10.89 z m -61.7,-204.24 c 12.04,-2.137 23.29,2.664 29.36,5.582 5.84,2.914 11.64,7.547 14.07,13.141 10.7,0.484 19.23,0.957 27.5,9.465 4.38,8.753 2.92,18.96 3.65,28.441 10.45,-2.43 30.58,-3.473 41.51,-3.906 15.75,-0.625 34.4,-0.407 35.53,29.156 -6.08,0.242 -11.91,0.242 -17.99,0.242 -3.89,-6.316 -14.23,-13.484 -23.54,-11.922 -19.63,3.293 -32.85,7.293 -51.58,13.856 5.84,12.155 9.02,16.815 14.61,28.975 10.7,0.97 23.09,-1.22 32.57,5.35 8.51,8.75 5.11,22.36 5.6,33.3 -10.7,-7.54 -18.48,-23.58 -33.8,-19.45 -20.85,7.1 -23.2,30.53 -23.04,49.3 -11.43,-12.16 -18.28,-23.05 -16.09,-38.36 0.73,-7.78 8.99,-9.97 14.58,-13.61 -5.59,-11.43 -13.35,-25.51 -18.95,-36.94 -13.37,4.86 -30.84,14.32 -42.27,23.31 -12.16,8.51 -11.22,20.19 -12.92,34.29 -5.11,0.49 -10.456,0.97 -15.561,1.46 0.488,-10.45 -0.973,-22.12 4.621,-31.6 6.08,-11.91 18.96,-17.99 30.38,-23.83 -10.2,-9.719 -20.9,-20.172 -25.27,-33.785 -3.9,-13.371 11.42,-22.856 8.75,-36.223 -1.47,-11.422 5.75,-24.012 18.28,-26.242 z m 3.39,9.188 c -10.15,12.957 -5.15,43.066 -4.66,68.589 17.02,-13.371 38.17,-19.687 59.81,-18.961 -4.63,-26.253 -36.67,-44.711 -55.15,-49.628 z m 928.34,343.292 c 11.42,8.99 27.23,7.05 40.59,5.59 14.83,-2.92 32.58,-5.84 41.58,-19.21 11.18,-38.16 -12.16,-79.49 -47.17,-96.02 -8.26,-2.92 -20.17,-3.4 -22.85,-13.86 -2.91,-13.37 -0.73,-27.71 -6.32,-40.59 -6.32,-18.23 -26.74,-30.64 -45.94,-25.77 -13.13,2.43 -20.91,14.58 -27.23,25.28 12.4,1.94 28.44,2.43 34.52,15.56 8.27,14.83 -2.43,41.81 -22.12,37.68 -16.29,-0.73 -32.33,-9.48 -38.89,-24.55 -8.03,-14.59 -6.57,-31.61 -9.97,-47.16 -12.4,-20.43 -35.01,-34.77 -59.32,-35.01 -17.26,-0.73 -36.22,-0.73 -51.05,9.72 -9.72,6.08 -15.31,16.54 -19.2,26.74 20.18,-5.59 43.27,-12.88 63.45,-2.92 14.82,8.27 14.58,32.58 -0.98,40.12 -22.85,10.94 -49.34,10.94 -73.9,7.29 -30.39,-4.86 -59.8,-21.88 -74.63,-49.59 -5.35,-11.91 -2.67,-26.5 8.02,-34.52 22.86,-18.72 52.27,-26.74 80.47,-34.52 36.22,-9.24 72.93,-18.717 110.61,-18.717 8.75,15.557 18.71,33.057 36.94,38.647 1.47,-14.83 1.47,-32.084 15.32,-41.322 -1.46,20.422 -3.16,43.762 11.18,60.532 22.61,25.04 66.37,20.9 86.79,-5.11 -14.34,-1.94 -30.39,-2.43 -41.81,-12.39 -6.81,-5.84 -8.51,-15.32 -6.33,-23.83 9.73,-13.855 27.96,-16.527 43.76,-16.527 79.49,-0.246 159.23,0.239 238.72,0 12.89,18.717 28.93,38.407 51.78,43.757 10.7,3.16 20.91,-2.19 28.93,-8.75 -6.57,-0.98 -13.37,-1.7 -19.94,-2.68 0,-2.91 -0.48,-8.51 -0.72,-11.42 34.52,4.13 68.79,8.02 103.07,11.91 11.42,0.97 19.2,9.96 24.55,19.2 -7.29,7.05 -14.58,14.1 -21.64,21.64 11.43,5.1 25.77,8.75 37.44,2.19 13.37,-8.51 19.94,-24.55 22.12,-39.63 -4.61,-12.4 -13.37,-25.033 -26.74,-28.924 -29.66,-9.48 -61.5,-7.054 -91.4,-13.371 -14.1,-3.89 -10.21,-19.207 -10.7,-30.144 15.8,0.242 33.79,-5.106 38.66,-22.121 -8.75,2.187 -17.27,5.347 -26.26,6.804 -10.69,1.704 -21.15,-2.187 -31.36,-4.617 3.4,-12.398 10.94,-25.039 7.3,-38.41 -4.62,-24.797 -27.72,-40.598 -49.84,-48.617 -39.38,-13.617 -81.43,-5.106 -121.79,-1.703 -43.27,4.863 -86.3,10.941 -129.33,17.258 -7.04,1.218 -14.1,0.246 -20.9,-1.211 19.93,-36.465 58.58,-56.161 95.29,-71.957 16.29,-6.079 32.82,2.429 48.37,7.046 25.77,7.782 50.09,22.122 77.8,22.122 9.72,0.246 16.04,-8.266 21.63,-15.067 -11.18,-1.219 -23.58,0.969 -33.06,-5.598 -5.83,-3.644 -5.1,-11.179 -6.56,-17.011 6.08,-1.215 12.15,-2.434 18.23,-3.645 1.7,-12.644 1.94,-26.5 -4.38,-37.926 -7.29,-14.101 -20.9,-23.824 -35,-30.386 4.38,9.965 13.37,18.23 13.37,29.898 -2.43,3.649 -5.1,7.055 -8.03,10.211 -12.15,-19.445 -16.77,-42.297 -24.55,-63.687 -2.18,-7.055 -9.47,-10.211 -15.31,-13.371 -3.41,12.152 -8.02,23.82 -16.05,33.789 -2.43,-17.993 -4.13,-38.168 -17.5,-52.024 -14.58,-15.558 -37.43,-15.801 -57.13,-17.258 -0.48,-11.668 0,-24.066 -6.32,-34.277 -6.8,-11.914 -26.74,-9.969 -34.03,-0.242 -0.73,11.179 -0.24,22.363 -0.24,33.547 -11.67,5.59 -22.37,12.882 -33.06,20.175 -0.24,-4.863 -0.24,-9.722 -0.49,-14.585 6.56,-3.403 16.04,-5.59 17.5,-14.098 1.71,-12.645 2.68,-26.742 -6.8,-36.953 3.16,-9.239 6.32,-18.473 8.75,-27.953 -27.72,-2.434 -46.68,26.98 -42.79,52.023 2.43,9.234 9,16.527 14.11,24.551 -27.48,-9.969 -26.02,-44.246 -30.15,-68.067 -5.83,-3.406 -11.91,-6.566 -17.99,-9.48 0.49,15.07 -5.34,29.898 -18.96,37.437 -12.88,1.942 -26.26,-1.457 -38.9,2.188 7.79,18.961 31.85,18.23 43.52,32.816 -5.11,4.133 -9.97,8.266 -15.07,12.399 -8.51,-4.379 -17.5,-8.024 -26.99,-10.453 -0.24,5.59 -0.24,10.937 -0.48,16.527 -11.67,-10.937 -24.55,-20.418 -37.68,-29.414 -13.37,-9.234 -12.65,-27.469 -15.32,-41.813 -17.5,14.832 -14.83,39.625 -11.91,59.805 4.38,19.93 23.82,40.598 45.7,35.008 8.03,-2.434 14.1,-8.512 20.66,-13.371 0.98,16.769 -14.09,27.226 -28.43,31.359 9.72,2.914 18.23,8.504 27.22,12.637 12.64,4.379 24.8,-2.43 36.71,-5.348 21.63,-6.078 44.24,-12.64 66.6,-7.05 18.48,4.621 36.23,12.644 52.76,22.121 5.1,2.918 7.29,8.511 10.45,13.129 -12.88,4.621 -26.26,11.421 -40.11,7.05 -29.17,-6.808 -59.08,-8.754 -88.73,-7.777 -15.32,36.949 -51.05,59.07 -84.11,78.031 -35.74,16.043 -75.36,26.008 -114.74,23.094 -26.99,-2.188 -52.51,-12.398 -75.85,-25.77 0,-4.859 0.25,-9.722 0.25,-14.828 38.65,13.371 79.49,25.039 120.57,18.477 10.69,-1.703 22.85,-6.563 26.25,-17.988 1.95,-14.829 -0.97,-30.387 1.46,-45.219 6.57,-9.477 18.97,-6.074 28.45,-4.86 17.74,1.946 35.49,6.805 53.48,5.106 7.05,-0.246 8.5,-8.512 11.66,-13.617 -33.06,-6.074 -59.8,-28.438 -80.7,-53.477 -8.51,-12.887 -16.78,-28.687 -12.4,-44.488 5.35,-21.391 10.94,-42.543 16.05,-63.934 3.64,-13.371 -0.25,-30.144 -12.4,-37.922 -12.4,-7.539 -27.47,-5.105 -41.09,-5.589 2.92,-5.836 6.08,-11.672 8.76,-17.504 -8.76,-0.731 -18,0.242 -26.75,-1.946 -7.29,-3.648 -13.61,-8.996 -18.71,-15.316 -1.95,-6.805 -0.97,-14.098 -1.46,-21.148 -6.08,1.214 -14.1,-0.731 -18.48,5.105 -2.67,4.375 -2.67,9.965 -3.89,14.586 -5.59,0 -11.42,-0.242 -17.01,-0.731 -7.3,-11.668 -14.1,-23.82 -16.78,-37.433 -7.29,0.973 -17.01,0 -19.69,8.508 -2.18,13.125 1.7,26.984 -2.91,39.867 -5.35,11.18 -19.94,7.047 -29.91,7.777 -0.72,-5.105 -1.45,-10.453 -2.18,-15.558 9.48,-0.727 19.93,1.699 28.92,-2.43 8.51,-6.563 3.9,-18.231 -1.46,-25.524 -5.1,-9.238 -15.31,-16.531 -15.55,-28.199 4.13,-15.562 17.26,-26.5 26.74,-38.898 -16.05,-0.485 -35.01,2.918 -44,17.988 -14.35,22.121 -7.05,49.84 0.24,73.172 -5.59,2.434 -13.37,3.164 -15.55,9.969 -1.71,7.777 -0.98,17.015 6.31,21.636 15.81,13.129 37.44,6.805 55.92,11.668 6.31,0.973 8.99,7.293 12.64,11.668 -22.85,-3.648 -48.87,-10.695 -70.26,2.914 -13.37,8.512 -9.48,26.989 -5.59,39.872 8.51,-5.348 14.1,-15.071 23.34,-18.961 12.64,3.16 26.74,9.722 31.12,23.093 2.67,10.207 1.21,20.664 1.94,30.871 4.62,0.485 9.48,0.973 14.1,1.704 -6.32,4.132 -13.61,7.535 -18.48,13.613 -9.96,11.183 -11.18,26.742 -17.5,39.871 -12.15,-10.215 -11.18,-26.988 -13.61,-41.332 -17.99,10.941 -23.1,32.578 -31.85,50.082 -3.16,8.75 -14.83,8.262 -20.42,14.582 -1.7,11.426 4.62,21.395 11.18,29.902 4.87,5.348 0.98,12.641 0.49,18.719 -25.53,-3.406 -47.89,-18.719 -71.96,-27.473 6.81,-9.964 14.83,-19.691 17.51,-31.843 1.94,-14.102 -6.81,-26.496 -17.02,-35.246 -0.24,6.32 -0.49,12.636 -0.73,19.203 -2.67,0.242 -7.78,0.484 -10.45,0.726 8.51,-15.801 13.37,-34.761 8.02,-52.508 -2.67,-8.992 -9,-16.285 -15.07,-23.332 -1.46,14.582 -2.43,31.356 -14.59,41.567 -19.2,16.773 -45.94,16.773 -70.01,16.043 4.86,-8.996 10.21,-18.961 9,-29.66 -3.65,-6.805 -14.59,-9.723 -20.18,-3.399 -17.5,17.5 -43.76,16.285 -66.61,13.61 -0.48,-27.227 1.46,-54.454 -1.7,-81.438 -1.94,-13.855 -4.86,-29.168 -16.04,-38.648 -6.81,-4.379 -14.84,-5.832 -22.37,-8.508 2.67,6.808 6.81,12.883 7.78,20.176 -0.73,5.832 -3.4,10.937 -5.35,16.289 -6.8,-12.399 -15.8,-25.039 -17.02,-39.383 6.08,-20.906 23.1,-35.977 36.71,-52.024 -17.5,-0.242 -34.76,0.247 -52.02,-0.484 16.77,-13.613 38.65,-19.934 52.75,-36.469 -32.33,-2.672 -68.06,-5.59 -96.75,12.887 -28.2,18.23 -38.17,53.48 -38.89,85.328 -0.49,7.777 -13.38,18.231 -19.21,8.508 -7.29,-15.559 -12.64,-35.25 -4.13,-51.535 2.91,-6.567 6.8,-12.645 10.21,-18.961 -17.99,4.129 -39.38,11.422 -43.52,31.844 -11.42,-11.911 -24.79,-23.825 -41.81,-25.282 -9.97,-0.484 -22.85,-1.457 -28.44,8.508 -1.22,10.942 10.94,16.774 16.29,24.797 -5.11,5.348 -10.45,10.695 -15.56,16.043 -22.854,-5.59 -47.159,-10.695 -70.499,-3.891 -11.668,3.403 -22.609,11.914 -25.769,24.313 -0.973,7.047 0.734,14.098 1.461,20.902 20.664,-14.828 48.375,-18.476 70.984,-6.074 -18.961,2.914 -37.438,8.992 -51.539,22.359 14.586,1.707 28.687,9.239 35.25,22.856 4.133,8.75 12.64,19.933 6.562,29.41 -8.019,2.191 -13.609,-5.344 -19.203,-9.961 -11.668,-9.969 -19.933,-26.258 -36.949,-27.715 -10.938,-4.375 -21.637,2.914 -28.93,10.696 -9.238,10.207 -11.668,24.55 -11.425,37.921 2.187,13.129 -11.18,19.934 -18.715,28.2 -20.422,-9.965 -34.035,-29.903 -54.457,-39.141 -0.243,3.895 -0.973,11.43 -1.215,15.074 -7.781,-16.531 -16.285,-33.547 -16.285,-52.508 -7.293,3.161 -15.801,6.079 -19.692,13.614 -10.699,19.449 -8.754,43.027 -2.918,63.691 13.614,2.188 27.227,1.215 40.598,-1.703 -2.676,6.078 -3.16,14.586 -10.211,17.02 -9.723,1.699 -19.691,0.968 -29.66,1.457 1.949,6.562 3.16,15.074 10.215,18.23 8.992,4.133 19.199,3.16 28.925,4.133 -0.73,4.863 -1.214,9.722 -1.945,14.586 -17.015,0.972 -31.359,-9.481 -47.644,-12.637 -11.184,-1.949 -18.719,7.773 -25.286,15.313 12.887,1.214 27.473,-1.704 38.657,6.32 31.773,21.445 11.543,30.586 -1.219,50.078 13.617,1.457 24.797,-5.836 35.738,-12.398 9.723,1.945 17.989,-2.676 26.496,-6.809 -5.836,10.211 -10.453,21.879 -20.664,28.445 -7.047,5.59 -16.285,5.106 -24.551,6.563 14.825,16.769 40.11,21.875 60.528,12.398 13.613,-6.808 29.172,-12.398 37.922,-25.527 12.886,-14.828 13.617,-35.25 16.535,-53.727 1.699,-8.019 -0.731,-18.715 7.531,-24.062 22.125,-18.231 53.727,-21.149 80.711,-14.344 26.743,5.836 52.023,-8.019 75.113,-19.449 0,11.914 1.46,24.07 -2.92,35.496 10.95,2.43 22.37,4.133 31.37,11.18 9.72,8.75 23.33,5.351 35,8.996 15.8,4.375 29.9,14.582 40.6,26.98 7.29,8.512 14.09,17.992 24.06,23.34 8.02,4.617 17.99,3.402 26.02,7.777 20.66,16.047 28.68,42.059 30.87,67.336 8.75,3.164 17.25,8.266 19.2,18.477 24.07,4.863 39.38,25.769 58.59,39.14 117.41,38.407 242.6,46.676 365.37,44.485 163.36,-4.375 325.5,-31.602 484.48,-68.067 15.81,-3.644 32.34,0.973 46.68,7.536 15.32,6.562 24.56,25.039 19.45,41.086 -4.38,11.179 -15.56,17.503 -26.01,21.636 -25.29,8.992 -52.51,11.18 -79.01,12.637 -39.14,3.16 -78.28,-1.699 -117.66,-2.43 -61.98,-1.945 -123.98,-7.781 -186.21,-4.617 -67.58,3.645 -137.34,10.695 -198.61,41.57 -20.66,11.669 -44,25.279 -52.26,49.099 -9.72,28.44 -0.73,61.75 20.66,82.66 31.36,30.14 75.85,40.35 117.66,47.16 69.77,9.72 140.02,14.34 210.52,19.44 18.47,1.95 38.41,0.25 55.91,8.51 13.13,4.86 24.8,16.29 26.26,30.63 2.67,7.29 -3.65,16.29 -11.43,15.56 -12.16,0 -24.55,-3.16 -34.76,-9.48 -10.7,-6.56 -14.1,-19.2 -18.72,-29.66 -9.97,18.96 -5.35,44 10.94,57.62 z M 1525.05,597.625 c 8.51,16.289 22.93,31.301 42.06,34.031 13.21,1.887 37.18,-8.187 40.25,-21.398 10.11,-43.492 -29.31,-35.172 -42.25,-15.012 -9.8,10.195 -27.41,1.891 -40.06,2.379 z m 231.43,-113.039 c 11.43,0.73 22.12,4.621 33.55,5.836 -9,-16.047 -19.94,-32.82 -37.68,-40.109 -12.15,-5.352 -25.77,0.972 -34.76,9.234 -30.07,27.492 14.89,40.902 38.89,25.039 z m 108.18,103.559 c 11.18,8.992 23.82,-2.43 35,-6.321 1.22,-12.156 -3.4,-22.851 -7.53,-33.793 -0.97,-14.582 16.28,-17.988 26.5,-22.605 -14.59,-9.238 -32.82,-14.098 -49.84,-8.992 -9.72,2.914 -18.47,11.421 -18.72,21.875 -1.46,17.261 0,37.921 14.59,49.836 z m -219.27,59.074 c 15.07,-10.211 34.52,-8.024 51.78,-9.727 -8.76,-7.535 -18.72,-14.828 -30.39,-16.531 -9.73,-2.188 -20.18,0.73 -29.66,-3.16 10.45,-6.074 18.48,-15.071 26.26,-24.067 11.91,-2.671 22.6,6.325 26.98,16.774 4.37,11.183 13.12,19.207 21.39,27.226 -3.89,9.727 -6.8,20.422 -15.31,26.985 -11.67,9.48 -27.96,6.562 -41.81,6.078 -11.19,0 -19.7,-16.774 -9.24,-23.578 z M 512.809,1081.14 c 0.972,19.45 -2.43,39.14 1.945,58.1 1.215,-6.81 1.215,-13.86 1.461,-20.9 5.832,0 11.668,0 17.258,0 0.972,-6.32 1.945,-12.65 3.16,-18.72 7.535,0.24 15.074,-0.73 22.121,0.97 7.293,2.91 8.019,11.66 10.453,17.99 8.266,-0.24 16.531,-0.24 24.797,-0.49 17.258,-23.58 14.34,-54.7 19.207,-82.16 5.59,-37.442 15.555,-79.496 49.832,-101.133 30.871,-10.211 56.152,-35.977 89.703,-38.164 31.844,-0.488 63.445,0.238 95.293,-0.246 -6.809,-11.422 -13.617,-23.578 -14.101,-37.434 0,-14.344 7.05,-27.23 13.855,-39.625 -22.848,0.488 -47.16,0.488 -68.066,-10.699 -11.668,-5.59 -18.961,-17.016 -25.766,-27.465 -4.863,1.941 -10.699,2.914 -14.832,6.563 -5.348,6.074 -5.59,14.586 -7.777,21.875 -12.399,3.89 -26.739,1.703 -36.219,-7.774 -11.184,-9.484 -11.914,-25.043 -13.86,-38.414 -10.937,10.695 -19.929,23.824 -22.363,39.383 -16.043,-16.774 -5.836,-41.082 5.344,-57.371 -16.77,4.379 -35.246,13.129 -42.051,30.387 -3.89,8.996 -0.73,18.476 1.215,27.226 -20.906,16.047 -46.188,29.66 -57.129,54.941 11.672,2.188 25.285,-0.488 35.25,7.536 6.566,7.539 3.16,18.472 4.133,27.711 -24.309,0.73 -52.508,-0.489 -71.469,17.261 -7.777,6.078 -7.051,16.774 -5.836,25.282 3.16,13.613 12.887,24.066 21.637,34.519 -9.238,7.051 -19.207,13.613 -30.875,16.047 -12.399,1.457 -17.988,15.794 -30.629,17.504 -7.293,0.97 -15.801,1.21 -21.879,-3.65 -3.644,-4.131 -6.562,-8.749 -9.726,-13.127 -3.887,9.238 -8.993,18.957 -6.563,29.167 3.648,11.19 13.859,17.5 22.367,24.56 -14.828,2.67 -31.117,4.62 -42.543,15.55 -7.289,6.08 -7.289,16.29 -9.722,24.8 14.101,-0.73 29.171,-0.73 41.082,8.51 11.425,6.08 13.855,19.2 16.531,30.63 16.531,-5.59 20.18,-23.58 19.933,-39.14 4.864,0 9.723,0 14.829,0 z m -0.973,111.34 c 12.644,-0.49 26.016,-3.16 35.492,-12.4 13.856,-12.88 27.469,-30.38 23.824,-50.81 -1.457,-15.8 -26.738,-19.69 -34.765,-7.29 -7.774,10.45 -5.344,24.07 -8.504,35.73 -6.563,11.19 -13.129,22.13 -16.047,34.77 z m -88.484,-54.7 c 12.882,2.92 28.683,-0.97 35.492,-12.88 2.672,-7.05 1.215,-14.83 1.699,-22.37 -1.457,-1.46 -4.617,-4.62 -6.078,-6.32 -8.02,0.25 -16.043,-0.73 -24.067,1.22 -6.558,3.64 -8.019,11.42 -10.449,17.75 -6.32,0 -12.644,0 -18.961,0 5.832,8.99 11.91,19.2 22.364,22.6 z m 50.32,-150.717 c 8.266,2.917 17.504,0.972 26.012,1.214 2.187,-4.859 5.105,-9.48 6.562,-14.582 -2.43,-10.941 -8.019,-21.152 -16.531,-28.445 3.16,-5.102 6.078,-9.965 8.996,-15.312 -12.156,1.214 -25.77,2.429 -34.277,12.152 -5.59,6.562 -10.938,15.316 -8.508,24.312 2.918,8.993 10.453,15.313 17.746,20.661 z M 697.074,725.734 c -3.886,28.446 42.258,51.266 62.434,33.036 15.996,-1.559 11.933,-27.801 2.476,-30.602 -13.617,-4.133 -27.961,-0.973 -39.382,7.293 -8.024,-3.891 -16.532,-7.781 -25.528,-9.727 z M 404.391,2116.97 c 11.425,-21.4 12.394,-46.43 16.285,-70.01 0.972,-16.29 9.722,-30.64 20.179,-42.79 5.59,5.59 11.422,10.45 16.04,16.78 0.734,5.34 0.488,10.69 0.734,15.79 -6.078,0.25 -12.156,0.25 -17.992,0.25 -4.864,19.93 -14.098,38.17 -19.446,57.85 7.293,0.25 14.829,0.25 22.122,0.25 0,-6.08 0,-12.16 0,-18.48 18.96,0 37.679,0.49 56.398,-0.24 2.187,-6.81 4.375,-13.86 3.891,-21.39 -6.567,-35.74 -30.875,-69.77 -21.395,-107.45 9.969,-32.57 39.383,-53.97 67.578,-70.26 30.391,-12.15 53.485,-36.22 77.551,-57.85 8.75,-7.05 15.555,-19.45 27.953,-19.69 22.367,-1.95 44.004,-8.75 64.906,-16.78 2.918,-23.82 -13.125,-43.75 -16.769,-66.6 -6.809,-25.04 6.316,-49.84 22.121,-68.56 4.371,-5.59 10.449,-10.2 13.125,-17.01 0.73,-12.4 0,-25.04 0.242,-37.44 -9.238,-0.97 -21.148,2.68 -27.711,-6.32 -7.777,-7.78 -8.512,-19.69 -10.211,-30.14 -11.668,11.42 -26.742,23.09 -44.242,17.01 -24.312,-8.75 -39.383,-32.81 -50.32,-54.93 -8.75,8.26 -18.235,17.01 -21.637,28.92 -5.105,14.59 -1.457,30.15 0.73,44.73 -13.859,0.25 -32.816,1.94 -35.25,19.21 8.75,6.32 20.176,9.96 25.282,20.17 12.64,22.37 12.64,49.11 11.429,73.9 -8.023,-7.53 -14.105,-17.01 -22.367,-24.55 -4.863,0.73 -9.238,2.68 -13.859,4.62 3.406,13.86 9.238,30.14 -1.457,42.54 -11.426,13.13 -30.387,25.77 -48.617,18.48 -15.317,-4.38 -31.364,-7.05 -47.407,-5.35 -24.066,1.94 -52.019,1.94 -70.007,20.42 6.562,0.49 13.125,0.73 19.691,0.97 -0.246,4.62 -0.246,9.24 -0.246,13.86 -37.434,4.13 -57.125,46.19 -54.695,80.46 9.238,-19.93 31.601,-26.25 51.535,-29.17 16.531,-1.22 36.949,4.62 41.57,22.61 -20.176,1.7 -39.867,11.67 -49.594,30.14 -11.91,15.07 -8.508,43.03 11.184,49.84 0,5.83 0,11.67 -0.242,17.5 -15.805,-5.83 -31.602,-12.64 -47.887,-17.75 -2.922,4.13 -5.84,8.27 -8.512,12.65 7.293,10.45 23.578,18.22 20.176,33.3 -1.457,9.24 -9.48,15.8 -16.285,21.63 -6.567,2.92 -14.344,1.71 -21.637,2.92 0.973,10.7 2.918,26.98 17.02,27.95 19.933,0 38.894,-8.75 59.07,-7.77 -8.512,22.12 -35.492,14.1 -53.238,18.96 -20.907,9.24 -22.364,35.49 -22.121,54.94 6.078,0 12.398,0.24 18.718,-0.25 3.645,-4.86 5.102,-11.18 9.723,-15.31 11.91,-7.05 25.523,1.22 35.008,8.75 9.48,6.56 9.722,18.72 12.883,28.69 z m -96.024,-485.22 c 6.321,16.77 26.742,17.26 41.813,15.56 11.91,-2.43 25.281,-3.16 35.25,-10.94 3.402,-13.86 0.484,-28.93 1.457,-43.27 -11.426,0.97 -23.824,0.48 -33.789,7.29 -7.778,5.11 -7.539,16.77 -15.805,21.39 -8.75,5.59 -18.957,7.54 -28.926,9.97 z m 147.801,94.32 c 19.449,0.25 33.793,-14.34 45.215,-27.96 8.023,-10.45 17.262,-23.33 14.101,-37.43 -5.836,-10.7 -22.609,-17.26 -32.336,-7.54 -9.476,10.21 -7.046,25.29 -9.722,37.93 -5.832,11.66 -13.61,22.36 -17.258,35 z m -166.52,227.05 c 1.461,22.12 27.715,34.52 47.403,30.87 13.371,-3.16 15.316,-20.17 10.453,-30.63 -6.32,-9.48 -18.719,-9.48 -28.684,-12.15 -4.617,-11.42 -5.832,-23.58 -6.566,-35.74 -12.883,12.4 -22.606,29.17 -22.606,47.65 z m 37.438,197.4 c 10.207,6.07 23.094,8.26 33.062,0.72 12.637,-9.72 24.063,-23.82 26.739,-39.62 3.16,-19.21 -25.035,-26.74 -35.735,-13.13 -7.539,8.02 -3.89,20.91 -11.422,28.93 -5.839,6.81 -9.972,14.58 -12.644,23.1 z m 111.82,19.44 c 10.942,-0.73 23.34,-1.46 32.094,-9.48 18.961,-16.53 25.277,-42.78 27.227,-67.09 -7.539,-2.43 -14.832,-5.84 -22.368,-8.75 -9.726,2.18 -18.718,7.04 -27.957,10.93 3.164,9.73 11.184,18.48 9.481,29.42 -0.488,16.77 -9.238,31.6 -18.477,44.97 z m 478.414,-80.95 c 16.285,12.4 28.438,28.93 40.352,45.22 2.433,-15.32 0.973,-35.5 16.773,-44.25 4.375,-3.89 9.481,0.25 13.614,2.43 11.914,6.81 21.881,16.78 33.551,24.07 20.66,10.21 43.75,15.8 66.85,15.56 -4.62,-9.48 -18.72,-20.91 -9,-31.12 9.24,-5.83 20.91,-5.59 31.36,-5.83 7.05,-0.25 15.07,1.21 18.97,7.78 0,10.21 -5.11,19.69 -7.54,29.41 11.67,-0.97 24.79,-0.48 34.52,-8.26 10.94,-7.3 12.39,-21.39 19.93,-31.36 0.73,7.78 1.22,15.31 1.7,22.85 8.27,-6.08 17.51,-12.88 18.72,-24.06 0.49,-17.02 -4.37,-34.04 -2.43,-51.3 7.78,6.56 15.07,13.61 23.09,19.45 9.97,-25.04 -5.34,-50.81 -5.34,-76.09 12.4,16.77 16.04,37.68 22.36,57.13 8.27,-31.61 9.24,-65.16 8.51,-97.73 -0.97,-30.63 -11.67,-62.96 -37.44,-81.68 -8.26,-8.02 -22.61,-4.37 -29.17,-14.58 -11.91,-16.05 -2.67,-38.41 -12.4,-55.43 -3.89,-8.51 -13.12,-11.67 -21.39,-14.59 -2.91,5.84 -4.37,12.65 -8.75,17.51 -9.48,6.32 -25.53,1.94 -27.71,-9.97 2.91,-12.88 9.72,-26.74 23.09,-31.36 17.75,-4.86 34.52,5.83 51.29,10.21 6.33,-19.93 9.72,-44 -3.88,-61.75 -16.29,-20.17 -42.06,-28.68 -65.89,-36.22 -5.59,-18.71 -6.56,-38.41 -9.72,-57.61 -7.29,-24.8 -30.14,-40.84 -52.51,-51.3 -0.24,28.94 -0.24,58.11 0,87.04 -6.56,-26.99 -16.29,-53.24 -30.14,-77.31 -11.91,-13.61 -28.444,-22.12 -44.729,-28.92 4.133,16.77 9.723,33.78 7.289,51.04 -3.398,25.53 -11.906,50.08 -21.391,73.9 -1.457,-41.57 -2.675,-85.32 -22.121,-123.25 -8.019,-16.04 -20.664,-29.65 -36.949,-37.43 -0.73,43.75 0.242,87.27 -0.488,131.02 0.246,5.84 -2.43,12.4 -8.75,13.62 -6.078,-10.7 -6.563,-23.1 -8.024,-34.76 -2.429,-42.3 -16.043,-86.54 -46.672,-116.93 -22.609,-22.85 -55.91,-30.39 -87.269,-28.45 -23.828,-1.45 -51.781,5.84 -62.965,29.18 -6.316,15.8 -6.316,38.41 10.211,47.89 3.891,-5.11 6.32,-11.67 11.426,-15.56 7.293,-3.65 15.558,-3.89 23.094,-5.35 -6.805,14.83 -16.774,32.58 -8.266,48.62 1.945,5.83 8.512,7.05 13.613,8.99 1.942,-9.96 3.649,-21.87 13.129,-27.71 8.996,-6.81 24.551,-14.58 33.301,-3.64 9.238,15.31 8.512,35 2.434,51.29 -5.106,-1.71 -9.969,-3.89 -15.075,-5.84 -8.261,12.4 -18.472,26.01 -15.07,42.06 5.105,25.04 19.449,47.16 32.332,68.79 -14.832,-3.16 -32.82,-9.23 -37.68,-25.76 -4.617,-10.94 2.43,-21.4 6.563,-31.36 -14.344,13.85 -28.684,31.12 -27.715,52.26 -1.941,24.56 10.457,46.92 24.066,66.37 -13.609,20.42 -21.386,44.49 -22.121,69.04 0,14.09 13.86,22.61 26.254,25.76 11.914,4.38 24.313,-0.72 35.738,-4.13 -2.917,-10.7 -5.835,-21.63 -7.777,-32.57 10.207,-4.38 21.875,-7.78 32.817,-4.13 16.773,6.56 30.871,18.95 41.57,33.05 -13.617,-0.97 -23.34,-10.93 -32.82,-19.68 0.484,35.24 8.265,69.76 16.043,103.8 3.406,9.72 -4.372,19.2 -2.188,28.92 3.645,15.81 15.316,27.96 26.012,39.39 -1.703,-5.11 -3.645,-10.21 -4.864,-15.56 3.407,-10.45 11.672,-19.21 22.122,-22.85 0.972,2.43 3.16,7.29 4.132,9.72 -7.289,11.67 -15.8,23.1 -22.121,35.25 -5.59,14.1 4.617,27.96 12.399,38.65 11.672,14.1 24.797,27.23 39.14,38.41 z m 188.15,-123.98 c -0.24,-11.91 -0.24,-23.82 -0.24,-35.73 -7.05,6.08 -13.61,13.13 -21.63,17.5 -10.7,-1.7 -17.02,-11.42 -16.05,-21.88 9.24,-5.59 18.72,-11.42 29.9,-11.42 6.03,-2.19 11.52,-0.29 18.57,1.17 12.4,3.16 18.38,23.38 27.37,32.13 -10.69,9.72 -22.36,19.93 -37.92,18.23 z m -148.286,54.94 c 0.246,-11.91 0.246,-23.58 0,-35.49 14.828,-4.86 24.312,-22.36 41.328,-20.18 9.728,0.73 13.618,10.45 16.038,18.48 -7.29,0.49 -14.34,0.73 -21.386,0.97 -2.43,4.13 -4.863,8.51 -7.293,12.64 4.133,7.3 7.535,15.07 10.453,23.1 -13.125,0.48 -26.011,0.48 -39.14,0.48 z m -19.446,-260.84 c -0.242,26.25 -1.703,56.4 17.746,76.82 13.614,-6.32 26.254,-16.77 41.571,-20.42 -1.946,-30.39 -30.387,-53.24 -59.317,-56.4 z m 37.922,168.46 c -1.699,-19.93 3.16,-40.35 16.774,-55.42 -5.344,-5.83 -10.938,-11.67 -16.774,-17.02 -18.715,4.87 -40.109,9.24 -52.992,24.8 -2.434,9.72 -1.215,19.93 -1.699,29.66 -6.324,-1.22 -14.348,1.21 -18.723,-4.63 -0.73,-15.55 -2.43,-32.57 6.078,-46.42 6.563,-10.46 17.504,-16.77 27.957,-22.61 -7.535,-9 -17.019,-18.48 -15.558,-31.36 -0.731,-21.64 -1.461,-50.8 21.148,-62.23 11.914,3.16 22.121,10.45 32.817,15.8 9.48,4.62 21.878,2.67 29.662,10.94 7.78,7.53 8.51,18.96 9.72,28.93 22.37,0.48 47.16,0 66.61,12.4 9,5.1 5.59,16.28 6.8,24.79 -6.07,0 -11.91,0.24 -17.74,0.24 -2.43,-4.37 -4.86,-8.51 -7.78,-12.64 -23.09,-1.46 -45.46,5.59 -67.093,12.64 5.593,11.92 11.183,23.58 16.283,35.5 8.51,-3.89 20.67,-11.43 28.93,-2.68 8.99,12.4 14.35,27.23 17.51,41.81 -12.4,-0.97 -19.21,-12.15 -28.45,-18.71 -8.99,-1.46 -19.44,-1.71 -27.47,2.67 -10.447,8.02 -5.588,22.61 -6.561,33.79 -6.562,0 -13.125,0 -19.449,-0.25 z m 993.53,220.98 c 3.16,20.18 22.61,31.12 39.87,38.16 23.82,5.11 52.02,-10.45 56.15,-35.25 1.7,-31.6 -19.2,-58.58 -42.3,-77.54 -6.8,-4.62 -9.96,-12.15 -15.31,-18.23 -10.94,-1.95 -25.04,-1.95 -30.87,-13.37 -8.03,-14.1 1.21,-29.18 4.86,-43.03 5.1,-16.29 7.53,-35.49 -2.68,-50.32 -13.61,-18.72 -39.14,-25.53 -61.26,-21.64 -18.72,2.68 -39.62,5.11 -54.2,18.48 -9.97,8.26 -8.27,22.61 -7.3,34.03 2.92,11.43 14.34,17.02 22.85,23.83 1.95,-20.18 19.69,-35.5 38.89,-37.93 16.29,-1.21 25.04,16.78 24.31,30.87 -2.43,9.97 -9.24,21.16 -20.9,21.16 -25.77,0.73 -51.78,0 -77.55,0.24 -6.07,-15.56 -15.55,-34.04 -34.03,-36.22 -12.88,-1.46 -23.34,8.51 -25.28,20.42 10.21,1.7 26.98,1.46 28.68,15.31 2.68,12.4 -11.18,17.75 -20.91,18.96 -30.14,2.19 -59.31,-12.15 -80.95,-32.33 -18.22,-17.99 -33.79,-38.89 -46.42,-61.5 -11.68,-19.45 -5.84,-49.83 16.52,-59.32 10.94,8.03 19.69,17.99 29.42,27.47 12.88,7.54 28.44,4.38 42.3,1.22 -9.24,-8.27 -20.67,-16.78 -21.64,-30.15 -1.7,-8.99 2.43,-18.96 10.94,-23.09 11.67,-5.59 24.07,-10.45 37.19,-11.18 10.46,13.61 2.43,29.9 0.49,44.73 -0.24,16.04 14.83,26.74 28.68,31.11 23.83,7.3 50.81,8.75 73.66,-2.19 21.64,-9.23 19.21,-44.97 -2.67,-52.5 -3.16,8.02 -2.43,20.9 -12.88,23.58 -9.73,-1.71 -20.42,-7.54 -22.86,-17.75 -2.18,-12.4 6.57,-23.09 15.32,-30.63 12.64,-10.69 27.47,-18.47 42.78,-24.79 14.35,-2.19 28.93,-0.25 43.28,-0.98 -9.97,10.7 -21.4,24.07 -17.26,39.87 4.37,21.15 26.98,29.9 45.46,34.77 -3.89,-14.84 -9.73,-30.39 -6.57,-45.71 8.51,-9.72 23.1,-9.72 35,-10.45 110.13,0 222.68,14.83 322.35,64.17 24.06,9.73 36.95,34.28 48.62,55.92 11.67,24.06 33.06,49.1 62.48,47.16 -4.87,-4.62 -12.65,-7.3 -14.11,-14.34 -3.64,-13.86 3.16,-27.23 9,-39.39 2.92,13.62 5.59,28.2 15.07,38.9 13.86,15.8 32.82,26.98 53.24,31.85 14.83,0.24 30.14,1.94 44.73,-2.68 17.26,-5.34 25.52,-27.47 18.47,-43.52 -10.21,-9.47 -24.79,-10.2 -37.67,-12.63 -0.98,12.88 -0.98,29.41 -13.86,36.22 -7.54,4.61 -14.11,-3.65 -16.78,-9.73 -5.34,-12.88 -2.43,-27.23 -3.16,-40.84 16.05,0 33.06,-3.4 44.49,-15.8 8.02,-6.32 9.24,-17.01 11.43,-26.5 -7.54,5.35 -14.35,11.67 -22.61,15.32 -6.08,2.92 -15.81,-0.24 -15.56,-7.78 13.37,-12.64 33.79,-21.63 37.68,-41.08 -2.19,-35.25 -28.2,-62.72 -52.51,-85.81 -85.57,-84.6 -209.3,-119.12 -326.96,-118.64 -1.95,-2.91 -3.89,-5.59 -5.84,-8.5 18.48,-10.94 40.36,-14.35 61.26,-18.72 34.76,-4.86 69.04,6.08 100.65,19.69 27.46,11.91 53.72,26.5 79,42.3 20.66,12.88 43.76,23.09 68.31,24.07 1.94,-4.14 3.65,-8.52 6.08,-12.4 10.45,-13.37 34.27,-5.6 41.57,-22.37 2.67,-15.07 -5.84,-29.17 -9,-43.51 -6.56,3.64 -12.39,8.99 -19.93,9.96 -6.32,-0.97 -11.91,-3.89 -17.5,-6.07 0.97,-18.97 22.12,-19.7 36.46,-20.66 3.89,-18.24 -8.27,-35.98 -2.92,-53.97 2.19,-8.27 8.27,-17.26 17.5,-17.51 16.05,-0.48 28.69,10.7 41.33,18.96 1.7,-10.2 5.59,-21.87 -0.49,-31.11 -10.21,-13.62 -27.22,-18.72 -42.29,-25.28 -9.48,-3.89 -11.91,-14.1 -12.65,-23.34 9,-1.95 18.24,-4.62 19.69,-15.31 -8.02,-5.84 -16.28,-11.43 -25.52,-15.56 7.05,-2.92 15.32,-5.11 19.45,-12.16 5.59,-9.72 6.32,-21.88 4.62,-32.81 -2.19,-11.92 -13.13,-19.45 -24.55,-20.67 -15.08,-0.97 -28.2,-9.24 -42.55,-12.88 20.18,-18.24 32.09,-44.49 31.61,-71.72 -8.27,0.98 -18.72,-2.43 -25.29,4.38 -10.45,9.73 -25.52,18.23 -39.86,12.16 -7.3,-1.95 -7.54,-10.46 -9.97,-16.29 -7.54,0 -15.07,0.24 -22.61,0.73 4.86,12.4 12.64,23.33 20.18,34.03 7.78,10.69 0.97,24.06 0,35.49 -5.59,-6.07 -13.13,-11.91 -14.59,-20.66 -1.21,-8.27 -0.24,-17.02 -0.97,-25.53 -3.64,-7.77 -8.02,-15.31 -12.16,-22.85 -8.99,-2.19 -18.23,-0.97 -27.22,-1.21 3.16,15.55 -6.8,28.93 -19.69,36.22 -15.32,1.7 -26.5,-10.7 -36.71,-19.93 -2.67,12.88 -8.51,27.47 -0.73,39.86 10.7,17.99 28.44,31.12 46.68,40.84 6.08,2.68 7.77,9.48 10.94,14.59 -22.37,1.21 -31.85,-22.85 -51.78,-27.47 -11.43,-3.89 -24.07,-8.02 -36.22,-5.11 -4.87,3.41 -5.11,9.73 -6.33,14.83 8.52,2.43 18.72,3.16 25.29,10.21 11.18,10.94 12.39,27.71 13.37,42.3 -12.89,3.16 -21.88,13.86 -33.79,18.72 -7.78,-5.59 -14.34,-12.88 -21.88,-18.96 0,7.53 -1.46,15.07 0.73,22.36 12.88,15.32 34.27,19.94 53.72,19.21 30.39,-5.35 59.56,-23.58 91.4,-17.75 2.2,29.17 2.68,60.77 -10.69,87.51 -47.16,-7.29 -88.73,-34.03 -125.68,-62.96 -7.54,-7.29 -18.96,-7.04 -26.74,-13.37 -6.56,-9.96 -12.4,-21.39 -23.1,-27.71 -9.96,-7.05 -22.36,-5.84 -33.79,-5.84 8.27,11.19 15.56,23.59 18.97,37.44 -5.11,3.89 -10.46,7.78 -15.56,11.67 0,-23.09 -0.25,-47.64 -12.16,-68.55 -5.83,-10.45 -16.53,-17.99 -28.93,-17.99 7.3,17.02 11.92,37.19 4.14,54.7 -7.54,15.56 -24.56,22.85 -40.35,26.74 -26.26,6.56 -54.46,0.24 -79.98,11.18 -16.05,5.1 -28.93,17.02 -44.73,22.85 -39.38,15.32 -76.82,35.25 -114.26,54.7 -21.39,11.42 -46.18,14.83 -70.25,13.37 -7.29,-2.68 -11.91,-10.46 -17.75,-15.32 41.57,0.73 86.06,-4.13 120.09,-30.14 12.88,-10.7 30.14,-17.02 38.17,-32.57 4.86,-12.4 4.37,-26.26 7.78,-39.15 8.75,-8.5 22.36,-6.8 33.54,-7.53 27.48,-1.46 53.48,11.67 80.95,11.43 21.64,-0.74 38.9,-15.81 50.57,-32.58 -19.93,1.94 -43.03,3.89 -58.59,-11.43 -13.13,-12.39 -10.45,-33.55 1.46,-45.7 -14.34,1.71 -26.74,9.48 -38.41,17.75 -7.78,-26.26 -16.77,-56.88 -42.3,-71.23 -16.29,-6.8 -34.76,-3.89 -51.53,-0.49 8.5,9.24 15.31,20.91 13.61,34.04 -7.29,1.7 -16.29,5.83 -22.12,-0.97 -13.37,-10.7 -7.54,-32.58 -22.37,-41.82 -14.09,-10.93 -33.06,-9.72 -50.07,-9.72 -8.51,0.49 -18.96,-0.24 -24.8,7.29 -5.83,6.57 -3.89,16.05 -4.86,24.07 -9.24,-8.27 -20.42,-14.83 -33.31,-13.37 -0.73,-10.45 0.98,-22.36 -6.07,-30.88 -3.65,-4.61 -10.22,-4.61 -15.56,-6.32 -0.25,12.41 -0.25,25.04 0,37.68 -17.5,-0.24 -35.01,-0.24 -52.26,0 -0.25,-6.07 0,-12.15 0,-18.47 -7.06,0.24 -14.11,0 -21.15,0 -0.49,5.59 -0.73,11.18 -0.98,16.77 -5.84,0.73 -11.67,1.46 -17.5,1.95 -0.24,5.35 -0.24,10.69 -0.48,16.04 -7.79,1.46 -16.29,4.14 -23.59,-0.24 -7.29,-2.92 -9.23,-10.7 -12.39,-16.77 -2.68,7.78 -7.3,15.8 -5.84,24.31 5.84,11.66 15.32,21.14 23.58,31.35 -5.59,0.49 -11.18,0.98 -16.77,1.7 -1.22,6.81 -1.95,13.62 -2.43,20.67 12.15,1.46 29.9,-3.4 36.7,9.97 6.57,18.23 -7.53,33.06 -18.96,44.97 19.45,-0.73 41.82,2.19 58.59,-9.97 6.81,-12.88 16.04,-26.01 31.6,-28.44 22.12,-3.4 44.49,-1.7 66.61,-0.49 -17.5,8.27 -31.12,22.37 -45.46,35.25 -7.78,2.43 -16.29,0.98 -24.31,0.98 -1.46,6.56 -2.92,12.63 -4.86,18.95 -12.89,0.25 -19.45,-10.69 -26.74,-19.2 -7.54,-0.24 -14.83,2.43 -21.64,5.84 0.73,9.72 2.19,19.44 4.14,29.17 -6.33,0 -12.64,0 -18.97,0.24 1.46,13.86 8.51,26.01 15.56,37.68 -27.23,-5.35 -52.26,-17.74 -77.3,-29.66 -51.29,-24.79 -99.67,-54.94 -152.18,-77.3 -36.22,-15.56 -73.9,-28.69 -113.28,-35.01 -13.13,-1.94 -26.99,-2.43 -39.63,-7.53 -6.07,-4.14 -10.45,-10.21 -15.55,-15.08 21.14,-16.77 49.1,-15.31 74.63,-16.04 -16.05,-21.88 -46.19,-29.9 -71.72,-21.64 -19.93,4.62 -36.7,18.72 -57.61,19.69 -10.7,-11.42 -23.58,-23.09 -40.6,-20.17 2.92,6.8 6.81,13.37 7.05,20.91 -0.97,6.32 -4.37,11.91 -6.8,17.5 -21.15,-6.57 -38.66,-20.66 -57.37,-32.09 -14.1,-2.68 -28.45,2.91 -36.47,14.83 9.72,2.18 20.91,4.61 26.5,13.85 8.51,13.86 16.05,35.74 0.97,47.9 -18.48,16.04 -46.92,9.72 -63.44,-5.84 -8.27,-8.02 -7.54,-20.42 -7.54,-31.12 4.13,-2.43 8.5,-5.1 12.64,-7.53 -3.65,-5.35 -6.81,-12.65 -13.86,-14.1 -21.15,-4.14 -42.053,2.92 -61.498,10.69 -0.973,-20.17 -6.809,-40.83 -20.668,-55.91 -12.637,-14.58 -29.899,-23.82 -47.403,-30.87 -12.64,-4.62 -17.988,-17.99 -24.793,-28.69 -9.484,-15.07 -9.484,-34.52 -0.246,-50.07 -21.39,5.1 -40.836,21.87 -42.293,44.73 -0.972,23.33 5.344,46.18 6.317,69.28 -10.45,-2.19 -18.477,-9.24 -20.176,-20.18 -6.809,0.97 -15.559,-0.97 -19.207,6.32 -0.727,4.14 -1.457,8.27 -1.699,12.64 -12.883,0 -25.77,-0.24 -38.653,0.25 9.239,3.64 19.449,7.29 22.61,17.74 -14.102,-2.43 -27.715,-7.78 -42.055,-8.51 -12.398,1.71 -24.801,4.86 -36.465,9.73 8.02,1.95 16.285,3.16 24.551,4.86 -2.676,9.97 -15.559,13.37 -24.551,12.15 -37.437,-11.67 -67.824,-37.92 -103.805,-52.5 -13.367,-5.6 -28.199,-7.05 -42.543,-3.65 5.84,6.8 11.672,13.37 16.778,20.66 -12.156,0 -20.91,-9.48 -31.117,-14.58 -24.309,-12.89 -52.996,-14.35 -79.493,-10.7 -24.796,3.89 -44.484,23.58 -52.75,46.43 20.664,-8.75 42.786,-17.74 65.879,-14.1 10.207,1.22 19.203,7.05 27.711,12.64 -4.859,13.86 -17.988,23.09 -20.418,37.68 15.313,0.73 30.871,0 46.184,0.73 -2.914,12.16 -14.094,19.21 -22.121,27.96 -13.125,-18.47 -37.922,-20.18 -58.34,-21.88 -17.988,3.89 -37.68,15.55 -41.57,34.76 -1.942,16.29 2.918,32.09 2.675,48.14 -10.207,-9.73 -18.476,-21.4 -29.418,-30.39 -7.046,-5.84 -16.527,-6.08 -25.035,-7.3 -0.242,7.3 -0.488,14.59 -0.488,21.88 6.078,0.25 12.156,0.49 17.992,0.73 -0.246,9.73 3.399,23.34 -7.051,29.18 -9.48,4.61 -18.961,9.72 -26.5,17.5 0,-3.16 -0.238,-9.24 -0.238,-12.4 8.02,-7.54 24.063,-15.56 17.258,-28.69 -3.402,-8.26 -13.613,-8.99 -20.422,-13.12 -13.855,-21.15 -13.371,-47.65 -16.285,-71.96 -17.992,17.5 -25.285,44.49 -20.906,68.79 2.672,17.99 6.562,39.63 25.039,48.14 -2.676,5.59 -5.106,11.18 -7.293,17.02 9.722,5.83 19.445,13.13 31.113,13.85 15.559,0.97 29.902,-6.08 43.758,-12.4 0,5.11 -0.242,10.21 -0.242,15.32 -2.676,2.43 -5.348,4.62 -8.024,7.05 -3.16,-3.16 -5.347,-7.29 -9.48,-9.48 -14.586,-0.73 -31.602,2.67 -40.594,15.56 -7.781,13.61 -1.949,29.9 2.914,43.26 11.184,-5.59 20.18,-22.6 34.277,-15.06 19.446,9.47 23.094,33.06 21.637,52.51 6.559,-1.22 13.856,-1.47 18.961,-6.32 15.559,-14.11 21.149,-35.01 30.629,-53 8.023,2.92 15.559,6.56 22.605,11.18 -6.078,4.62 -13.125,7.78 -19.687,11.18 -9.238,12.4 -11.672,29.17 -9.238,44 4.859,7.05 10.695,13.37 14.828,20.91 0,-2.67 0.242,-8.02 0.242,-10.94 5.836,0.24 11.672,0.49 17.262,0.73 0.972,-5.1 1.699,-10.21 3.402,-15.07 11.914,-7.78 26.742,-0.24 37.68,6.56 9.968,6.57 11.183,18.96 14.343,29.41 5.59,-6.56 8.024,-14.82 6.079,-23.33 -4.864,-26.01 -13.856,-50.81 -20.664,-76.33 -1.457,-5.84 -2.43,-11.91 -1.946,-17.99 4.621,-8.75 12.887,-14.59 20.422,-20.67 28.926,-21.39 61.746,-36.7 94.317,-51.53 30.144,-12.88 60.777,-25.28 93.109,-30.39 39.137,-5.35 79.976,-1.46 116.683,13.62 15.559,5.59 30.145,13.37 44.973,20.9 -1.461,-6.08 -3.406,-12.15 -5.348,-18.23 37.438,8.51 68.551,32.33 97.723,55.91 -8.265,-11.67 -20.66,-22.12 -20.176,-37.92 27.957,13.61 50.318,35.73 74.138,55.18 0.25,-11.18 0.25,-22.61 0.25,-33.79 35.25,24.31 70.5,51.54 93.1,88.48 10.7,16.78 13.13,36.96 17.75,55.68 24.07,5.59 39.87,25.52 58.59,39.62 105.74,53.24 226.8,74.88 344.46,63.69 110.12,-9.97 219.27,-27.47 328.42,-45.46 149.5,-19.93 302.89,-18.23 449.97,17.26 41.32,19.94 80.46,44.73 117.65,71.71 18.48,13.38 37.2,29.66 44.25,52.27 0,18.96 -16.77,33.3 -34.52,35.49 -23.33,5.84 -45.7,-5.59 -66.85,-13.85 -47.16,-17.99 -90.92,-43.76 -138.56,-60.53 -121.8,-45.22 -254.28,-62.72 -383.6,-48.38 -79.26,8.51 -157.29,26.5 -233.86,48.86 -8.03,2.19 -14.84,7.29 -21.88,11.43 -14.35,-8.75 -31.12,-12.4 -47.65,-12.89 -24.06,-0.73 -48.62,-2.67 -71.71,5.35 -21.15,7.54 -39.63,21.39 -54.7,37.68 37.2,-2.43 75.6,-7.53 111.83,3.65 21.39,7.29 43.27,20.66 53.23,41.81 8.02,38.41 17.75,78.27 42.06,110.12 25.04,25.53 53.72,49.83 88.73,59.56 68.06,23.82 140.75,25.52 211.98,26.74 23.09,-1.7 45.46,6.56 66.12,16.04 13.13,5.84 17.5,21.15 17.74,34.28 -16.77,10.7 -38.65,9.72 -56.15,1.46 z M 1544.5,1446.75 c 15.8,17.02 37.93,29.66 61.75,29.66 11.66,-1.21 22.85,-5.1 34.27,-7.53 -0.24,-9.24 0.49,-18.72 -0.72,-28.2 -1.22,-5.35 -7.3,-8.02 -12.4,-7.3 -16.29,0.73 -26.26,16.53 -40.84,21.4 -14.1,-1.46 -27.72,-6.81 -42.06,-8.03 z m 78.04,-96.99 c 6.56,6.56 17.5,9.72 26.49,7.05 10.45,-6.81 10.7,-20.66 11.43,-31.85 0,-16.53 10.94,-30.14 17.75,-44.48 -23.83,0 -38.17,20.9 -50.57,38.16 -5.83,8.75 -12.64,21.4 -5.1,31.12 z m 88.48,-10.21 c 7.3,0 14.59,0.24 22.12,0.24 0.25,-8.75 -0.48,-17.5 1.22,-26.25 1.7,-8.99 12.4,-10.21 19.21,-14.59 -9.73,-5.59 -22.13,-6.8 -31.61,-0.48 -12.16,9.72 -20.17,26.74 -10.94,41.08 z m 543.56,124.95 c 8.02,5.84 20.18,6.08 27.47,-1.46 6.32,-8.99 7.29,-21.88 2.43,-32.09 -13.61,-3.64 -28.19,-1.7 -41.81,-5.83 -12.15,-2.67 -22.85,-9.73 -33.79,-15.56 2.19,26.01 25.04,42.54 45.7,54.94 z m 69.04,-127.38 c 5.59,0.97 10.94,2.19 16.53,3.16 3.89,-5.1 7.78,-10.21 11.67,-15.32 -3.64,-3.4 -7.05,-6.8 -10.45,-10.21 4.61,-20.9 17.74,-38.16 30.87,-54.69 4.13,-4.38 6.08,-10.45 8.26,-16.04 -25.52,5.83 -52.75,19.44 -63.44,44.72 -8.51,16.29 3.89,32.33 6.56,48.38 z m 110.36,-18.96 c 5.11,1.94 10.7,2.91 16.05,3.89 7.29,-6.57 14.58,-13.37 21.88,-19.94 -2.43,-9.48 -9,-20.17 -2.92,-29.65 5.35,-6.32 14.83,-5.6 22.37,-7.54 -6.08,-8.02 -12.16,-18.47 -23.34,-18.47 -16.77,0.97 -35.98,10.69 -39.38,28.44 -1.71,14.58 0,29.66 5.34,43.27 z M 1659,3068.68 c 7.78,16.29 18.47,33.06 36.71,38.41 20.17,5.11 43.02,2.43 60.53,-9 9.72,-6.07 13.37,-17.5 14.34,-28.44 -6.56,2.92 -13.13,8.76 -20.9,6.56 -10.46,-2.18 -13.38,-13.85 -16.78,-22.36 6.56,-6.07 12.89,-12.64 20.18,-17.74 5.1,-0.73 10.21,0.97 15.07,1.94 42.78,10.94 83.62,27.96 124.95,43.52 25.04,8.99 52.27,10.21 78.52,8.02 20.91,-2.19 39.87,-15.32 49.11,-34.28 9.72,-16.29 8.5,-36.22 6.32,-54.21 -3.16,-22.37 -22.61,-38.16 -43.52,-44 -14.1,-4.37 -9.48,-22.61 -13.13,-33.79 -9.96,-21.63 -31.11,-35.49 -51.53,-46.19 -10.94,-4.86 -21.88,-14.34 -34.52,-9.48 -17.02,4.14 -23.58,22.37 -25.53,37.68 12.4,1.7 30.63,-0.48 36.22,13.62 0.49,7.04 3.89,17.26 -4.61,20.66 -4.86,0.97 -10.21,0.73 -13.86,-3.16 -20.42,-16.29 -44,-29.66 -70.01,-33.06 -20.91,1.21 -44.24,1.7 -61.26,14.83 -9.72,7.53 -8.26,22.36 3.4,26.74 2.43,-3.65 4.87,-7.54 7.05,-11.18 8.27,5.1 12.64,13.12 11.18,22.84 -30.38,4.38 -65.14,0.49 -88,-22.12 -11.18,-11.67 -22.36,-25.76 -22.84,-42.78 -1.22,-14.59 2.42,-31.6 15.06,-40.6 8.03,-5.35 16.3,-10.45 23.83,-16.53 9.72,14.59 23.82,31.36 43.51,28.93 8.27,0.73 11.91,-6.81 14.59,-13.37 -8.27,-6.07 -20.42,-10.94 -21.64,-22.85 -0.24,-11.43 9.48,-19.69 16.05,-27.95 1.94,17.25 4.13,36.46 17.26,49.34 15.8,16.77 39.86,20.91 61.98,20.42 17.51,-0.48 36.47,2.68 52.51,-6.08 14.1,-7.53 24.31,-25.77 18.24,-41.56 -6.57,-12.16 -21.64,-15.57 -34.03,-18 -8.76,-2.42 -16.05,4.38 -23.1,8.27 7.78,4.13 22.61,4.13 22.61,15.81 -0.98,10.44 -9,17.98 -18.48,21.39 -6.8,-6.57 -13.37,-13.62 -19.93,-20.43 1.94,-12.64 4.86,-26.49 16.29,-34.27 25.04,-18.72 58.34,-15.32 87.75,-15.56 -1.21,7.78 -5.83,17.26 0,24.31 5.11,8.75 15.8,9.72 24.55,11.67 2.19,-7.05 3.16,-15.31 8.75,-20.67 11.68,-11.91 28.93,-13.85 44.49,-16.04 3.41,18.48 5.84,41.57 24.31,51.78 11.19,4.13 23.83,2.19 35.49,1.46 12.64,-0.97 25.28,-10.46 25.28,-24.07 -1.45,-6.07 -6.07,-10.69 -9.48,-15.8 -1.46,6.57 -2.67,13.13 -3.89,19.69 -15.07,2.68 -23.33,-10.45 -31.84,-20.18 15.32,-11.91 35.49,-10.93 53.72,-9.96 65.64,4.13 128.84,24.31 190.35,45.94 26.01,10.45 52.99,25.04 67.09,50.32 8.02,13.13 3.16,31.36 15.07,42.54 6.81,6.57 17.02,4.63 25.77,5.36 -5.11,-6.81 -10.21,-13.62 -15.31,-20.18 3.4,-4.14 6.8,-8.02 10.45,-12.16 4.62,48.13 61.26,82.17 105.99,63.93 29.17,-13.37 36.22,-57.12 14.1,-79.97 -6.57,-8.02 -17.27,-9.73 -26.99,-10.94 4.87,10.94 20.67,25.76 8.03,36.71 -13.86,1.45 -29.91,3.16 -41.33,-6.81 -1.22,-18.48 1.46,-38.17 13.13,-53 5.59,-7.05 17.75,-12.64 25.52,-5.1 9.73,8.26 21.64,14.1 34.77,14.34 -5.84,-9.72 -12.65,-19.69 -13.62,-31.36 -1.94,-24.79 2.92,-51.05 -6.8,-75.11 -9.24,-25.53 -31.36,-44.25 -55.19,-56.16 -31.11,-13.13 -59.55,-31.6 -90.91,-44 -48.14,-20.17 -99.67,-35 -152.18,-35.49 -9,-0.24 -18.48,0.24 -27.23,-3.4 6.56,-6.57 13.86,-15.08 24.07,-14.35 33.06,-0.24 66.36,-1.45 98.7,5.84 51.29,10.21 98.69,36.46 136.85,71.95 15.08,14.59 32.82,27.96 53.73,33.31 16.04,4.13 35.49,1.21 46.67,-12.4 18.48,-23.34 19.94,-57.62 4.38,-83.14 -2.43,9.73 -6.56,19.69 -17.26,21.88 -0.73,-15.56 -2.92,-34.03 -19.69,-40.6 -4.13,8.27 -9,16.29 -17.26,20.67 -0.24,-10.21 -1.7,-20.91 0.73,-31.12 2.43,-7.78 12.4,-7.29 18.72,-5.59 13.61,4.13 24.31,14.1 35.49,22.37 -0.49,-17.02 0.49,-35.25 -6.81,-51.06 -2.91,-6.56 -13.86,-8.75 -12.39,-17.26 0.73,-15.55 -2.43,-32.81 5.59,-47.16 6.8,-11.42 20.9,-14.58 33.05,-16.28 -8.99,-11.67 -21.63,-19.93 -36.7,-21.4 5.83,-5.59 11.67,-11.18 17.26,-17.01 -10.94,-0.25 -21.88,-0.25 -32.58,-2.43 0,-2.68 -0.48,-8.02 -0.48,-10.45 9.72,-4.38 25.52,-1.46 28.93,-14.11 5.34,-15.31 6.56,-33.78 -1.22,-48.37 -7.78,-13.37 -24.07,-16.53 -38.17,-17.99 -8.5,-0.24 -12.88,-9.73 -12.15,-17.26 11.43,-15.07 33.3,-21.64 38.41,-41.32 4.13,-10.7 -0.24,-22.13 -1.7,-33.07 -6.57,0 -13.37,0 -20.18,0 -2.43,5.35 -3.65,12.89 -9.97,15.32 -15.56,7.78 -35.73,-0.24 -43.02,-15.56 -0.73,-6.32 -0.73,-12.88 -0.73,-19.45 -10.94,0.24 -25.53,2.92 -26.5,16.29 0.25,16.53 0.25,35.73 12.88,47.89 -2.67,3.4 -5.35,6.81 -8.02,10.21 -17.01,-12.64 -23.34,-34.28 -23.82,-54.46 0.73,-9.23 -6.32,-15.8 -11.67,-22.12 -3.16,12.64 3.65,34.04 -12.64,39.39 -15.32,1.7 -31.12,0.97 -46.68,0.24 -9.48,-0.73 -10.93,-11.91 -14.58,-18.72 -6.32,3.89 -14.59,7.05 -16.78,15.07 -2.67,5.59 0.73,11.67 5.11,15.56 12.88,12.4 29.66,19.45 45.7,26.74 -5.34,5.1 -10.45,10.21 -15.56,15.32 -18.96,-6.57 -39.38,-14.35 -59.31,-9 -13.62,4.62 -16.29,20.18 -16.29,32.58 16.05,0 32.09,-0.25 48.38,0.48 7.29,15.56 7.78,33.06 7.78,50.08 -5.11,0.49 -10.46,0.97 -15.56,1.46 0.24,-12.16 0.24,-24.31 0.24,-36.47 -18.72,0.49 -37.92,0.25 -55.18,-7.78 -16.29,-6.32 -27.72,-19.93 -41.09,-30.14 -1.45,24.31 17.02,43.03 35.98,55.43 14.35,8.99 29.18,18.96 46.43,20.42 31.61,5.83 62.72,-8.02 94.33,-6.57 12.63,7.3 14.1,23.83 16.28,36.71 2.68,33.79 0.25,68.07 9,101.13 -10.94,5.83 -21.64,14.34 -34.03,15.07 -22.61,-6.32 -46.92,-15.31 -61.26,-35.01 -7.79,-8.02 4.12,-14.34 7.77,-21.15 0.98,-10.21 -6.07,-23.09 -17.74,-21.14 -19.69,0.72 -31.85,18.96 -49.83,23.57 0.23,-9.72 13.12,-14.58 11.91,-24.79 -0.74,-14.34 -10.46,-25.52 -20.91,-34.27 2.43,6.31 5.59,12.39 8.75,18.47 -2.92,0.48 -8.27,1.7 -11.18,2.43 -3.4,-8.27 -6.57,-16.77 -9.48,-25.28 -2.43,-11.19 -17.02,-9.48 -25.53,-13.13 0.97,14.1 5.35,31.85 -7.78,41.81 -23.09,17.99 -54.21,16.53 -81.92,16.04 -30.14,0 -61.02,-4.61 -90.43,3.65 -50.81,13.13 -96.76,38.9 -142.46,63.45 -37.67,14.34 -77.3,24.07 -117.65,24.07 -3.89,-3.41 -5.59,-8.75 -8.02,-13.13 41.56,-10.94 84.35,-21.88 121.05,-45.22 12.89,-8.5 24.56,-18.96 31.12,-33.05 7.54,-15.08 0.97,-33.31 9.97,-47.89 10.21,-5.59 21.88,-12.41 34.03,-9.73 28.69,6.08 56.89,14.1 85.57,19.45 25.53,0.73 51.3,5.59 76.82,2.19 24.06,-2.92 44.73,-25.77 42.79,-50.32 -2.19,-11.67 -15.81,-10.95 -24.8,-9.97 -1.46,8.02 0.97,18.23 -7.53,22.85 -18.73,12.89 -43.03,9.24 -64.67,9.72 -15.07,-0.24 -36.22,-2.91 -40.35,-20.66 -1.22,-19.93 5.1,-39.87 4.37,-59.8 -5.1,-11.91 -20.42,-8.51 -30.62,-7.05 -12.89,1.7 -12.89,19.45 -26.02,21.63 -9.72,-17.99 -15.56,-37.67 -20.42,-57.61 -5.35,-24.79 -26.26,-46.43 -51.78,-49.59 -16.28,-1.94 -35.01,-0.73 -47.4,11.18 -7.54,6.81 -10.94,16.53 -14.34,25.77 3.4,-3.16 6.8,-6.56 10.45,-9.72 10.45,4.62 24.06,8.99 27.22,21.39 3.41,9.96 -8.26,17.02 -16.77,15.55 -16.77,1.71 -29.9,-9.96 -44.73,-15.31 -9.72,-3.89 -7.53,-16.28 -8.99,-24.31 0,-14.09 -9.97,-27.71 -23.58,-31.36 -12.16,-3.16 -25.53,-7.53 -37.93,-2.67 -10.69,6.08 -13.12,18.96 -18.23,28.69 -9.23,6.8 -19.93,10.93 -30.38,14.34 -0.98,-11.43 2.19,-25.04 -6.32,-34.52 -6.08,-7.3 -10.7,-15.8 -15.32,-24.07 -0.24,7.29 -0.24,14.59 -0.24,21.64 -6.08,5.83 -11.92,11.66 -17.51,17.74 -12.64,0 -25.03,0 -37.67,0 0,8.02 -0.25,16.29 -0.49,24.55 -6.57,-8.5 -11.18,-18.23 -16.77,-27.22 -3.65,11.91 4.61,32.09 -11.19,37.19 -12.15,2.92 -17.26,15.56 -27.95,21.15 -9.97,0.24 -11.19,-12.16 -15.07,-19.2 -5.84,0 -11.67,0.24 -17.27,0.24 -1.45,-3.89 -2.91,-7.54 -4.37,-11.43 0.24,13.86 -2.43,27.72 0.24,41.33 4.62,13.86 20.67,15.07 33.06,14.1 14.83,0.97 34.04,-3.89 43.52,10.94 -15.8,1.7 -32.09,-1.46 -47.65,1.95 -12.89,6.8 -9.72,23.09 -10.21,35 -18.47,-6.8 -36.46,-16.04 -56.39,-18.23 3.88,23.09 23.82,37.92 40.83,51.54 9.97,9.23 25.04,7.77 37.2,4.13 -0.25,-8.76 0.97,-17.75 -1.22,-26.5 -2.67,-6.81 -11.18,-8.27 -17.26,-11.18 0.24,-5.11 0.24,-10.46 0.49,-15.8 8.02,2.43 17.26,3.88 22.36,10.93 12.16,14.35 11.92,34.28 9.73,51.54 -3.17,7.78 -12.64,8.75 -18.97,12.64 12.64,0.49 25.53,2.43 38.41,1.7 10.7,-1.7 19.21,-9.96 26.74,-17.5 15.56,-15.07 26.5,-34.03 40.12,-51.05 7.53,-6.81 17.01,-12.88 27.46,-14.1 28.45,9 56.65,19.94 86.06,26.5 -22.36,18.47 -49.35,32.82 -78.76,34.03 -11.91,-0.97 -17.02,11.67 -24.31,18.48 -2.92,-4.13 -5.59,-8.27 -8.27,-12.64 3.41,-2.43 6.57,-5.11 9.73,-7.78 -10.46,0.97 -22.85,-0.98 -30.39,8.02 -8.75,8.02 -1.46,20.66 3.41,28.93 -7.06,1.94 -15.81,1.7 -20.91,8.02 -3.41,16.29 3.64,32.33 6.07,48.38 -30.14,-3.9 -58.34,-16.05 -86.29,-27.23 -13.13,-4.86 -24.31,-13.61 -35.98,-21.15 -44.73,-29.41 -89.46,-59.07 -134.43,-88.48 -44.73,-28.2 -101.13,-45.47 -153.39,-28.2 -4.63,-14.11 -10.95,-29.18 -24.32,-36.96 -12.4,-7.53 -27.22,-4.38 -40.59,-2.67 1.7,6.08 1.94,12.4 -0.73,18.23 -17.02,-12.15 -35.49,-25.28 -57.61,-24.31 -8.27,-1.22 -15.08,3.89 -20.42,9.48 9.24,2.43 20.17,2.92 26.74,10.94 7.05,8.27 14.58,21.64 5.83,31.6 -9.72,12.65 -29.42,5.84 -38.9,18.72 -6.32,7.54 -16.04,9.97 -25.03,11.67 -0.97,-26.01 0.48,-52.27 -0.97,-78.27 -1.22,-17.99 -13.62,-33.31 -28.93,-41.57 -15.08,-8.75 -32.824,-9 -49.594,-10.46 10.453,13.37 23.82,24.32 34.034,37.68 -15.803,-0.97 -27.96,-12.4 -43.03,-16.04 -22.363,-8.27 -48.375,-7.78 -68.309,-22.37 -20.91,-14.1 -35.492,-35 -48.621,-55.91 -6.804,4.62 -15.316,10.21 -14.582,19.69 1.7,13.37 10.211,24.8 15.801,36.95 -13.617,-6.8 -26.742,-14.1 -40.84,-19.45 -1.461,4.14 -3.164,8.27 -4.621,12.41 8.508,8.26 16.774,16.52 24.793,25.03 -31.113,0.73 -61.984,0 -93.101,0.49 11.183,10.69 33.304,17.26 29.898,36.22 -22.605,2.92 -43.027,-8.75 -63.688,-16.04 -24.554,-10.21 -49.351,-21.88 -76.82,-20.42 0,5.34 0.242,10.45 0.242,15.8 -12.152,-9 -25.765,-16.78 -40.839,-19.69 -17.989,-4.38 -35.977,1.94 -53.477,4.37 18.715,5.6 28.437,23.34 35.977,39.87 -11.426,-2.19 -22.852,-3.16 -34.52,-3.4 12.883,15.55 20.664,35 19.203,55.66 -4.863,0 -9.965,0.25 -14.828,0.25 -4.375,-22.12 -29.902,-26.74 -48.863,-25.77 -15.801,2.18 -33.793,5.83 -44.485,18.96 -5.836,6.56 -5.105,16.04 -5.105,24.07 0,14.82 10.695,26.01 17.5,37.92 -6.563,-0.73 -14.098,0.48 -19.692,-3.65 -11.421,-7.53 -16.285,-21.87 -28.437,-28.68 -10.941,-6.32 -24.066,-4.62 -35.981,-4.62 -0.972,9.24 8.754,13.85 12.887,20.9 0.969,11.19 0.242,22.37 0.485,33.55 -11.914,4.86 -22.364,12.4 -32.817,19.7 -1.219,-4.14 -2.187,-8.03 -3.406,-12.16 -1.215,12.88 -10.211,30.14 2.676,39.38 15.07,11.18 34.519,11.67 52.265,14.1 2.184,4.62 4.133,9.24 6.317,13.61 -21.875,-2.67 -50.559,-10.45 -66.364,9.73 -12.882,20.42 3.649,42.78 6.082,63.93 0.727,-5.1 1.211,-9.97 1.458,-15.31 13.125,0.72 27.953,-1.71 38.894,7.04 8.75,8.03 10.938,20.43 14.34,31.12 9.969,-6.08 21.637,-11.91 25.285,-23.82 5.106,-19.45 12.398,-38.17 23.094,-55.19 5.344,-8.26 14.828,-12.4 24.066,-15.31 -0.73,6.81 1.457,14.34 -2.429,20.42 -11.915,20.18 -26.743,40.35 -27.227,64.66 8.019,5.59 12.637,13.37 12.883,23.1 1.699,-13.37 7.289,-28.93 21.39,-33.06 13.129,0 28.442,-3.41 39.383,5.59 5.106,3.89 9.723,8.26 14.586,12.4 8.75,-11.67 19.445,-24.07 18.961,-39.63 0.727,-19.21 -10.453,-35.73 -18.234,-52.51 -2.672,-13.61 6.078,-26.5 15.804,-35 17.746,-15.08 40.84,-22.12 62.961,-28.2 20.664,-5.11 41.809,-10.45 63.446,-10.7 -6.321,11.43 -12.153,23.34 -20.418,33.79 -11.426,8.51 -26.254,13.86 -33.063,27.23 -7.535,13.37 -0.488,28.44 0.973,42.3 -13.371,-12.89 -25.281,-27.96 -42.539,-35.98 -10.699,-4.86 -22.852,-0.73 -33.309,3.16 8.266,11.91 19.938,23.34 19.449,38.9 -0.726,22.6 -9.238,44.24 -17.015,65.14 -2.434,9.48 -16.289,8.27 -18.961,17.99 -3.891,15.31 7.289,29.66 6.078,44.97 -4.133,-0.72 -8.266,-1.69 -12.156,-2.67 2.433,-5.59 5.105,-11.18 7.539,-16.77 -10.942,0.48 -23.828,-0.73 -31.848,8.51 -7.777,7.77 -4.621,20.42 -9.969,28.92 -10.211,0.98 -20.902,-1.45 -31.113,1.46 -4.133,4.86 -3.16,11.67 -4.379,17.5 -16.285,0.73 -29.172,-11.66 -45.215,-12.39 -22.363,-1.7 -46.429,4.62 -63.691,19.44 -25.277,21.88 -22.121,64.67 1.219,87.03 3.644,-15.07 7.047,-32.08 20.175,-42.05 19.934,-15.32 51.293,-10.21 65.637,10.45 5.344,8.27 4.133,18.23 3.887,27.23 -12.641,0.73 -26.254,0.73 -37.434,7.78 -14.101,9.48 -20.91,27.47 -18.718,44 2.187,11.67 11.179,19.93 19.691,27.47 0,4.37 -0.246,8.5 -0.246,12.64 -10.695,-0.98 -20.18,2.92 -27.711,10.21 -2.43,-2.92 -4.863,-5.84 -7.293,-8.76 -13.613,-1.94 -27.227,-0.73 -40.84,-0.24 7.047,3.89 18.719,4.87 19.934,15.07 3.886,15.08 -2.43,31.12 -15.801,39.14 -13.129,1.7 -26.254,0.25 -39.383,0.98 1.699,11.91 7.293,25.76 20.66,27.95 20.422,2.43 41.332,0.73 60.293,-7.05 5.832,4.14 10.207,9.48 13.61,15.56 -17.989,0.97 -37.68,0 -53.481,10.45 -16.773,10.21 -23.336,31.36 -21.633,50.08 5.832,-7.29 8.993,-21.39 20.66,-20.17 12.399,2.42 25.528,7.29 33.063,17.74 2.43,6.32 1.215,13.37 1.945,20.18 9.481,-1.22 19.93,-2.92 25.77,-11.43 15.312,-20.9 13.855,-48.38 16.043,-73.17 4.133,-7.29 8.992,0 13.367,2.91 0.973,12.16 -0.242,24.32 -6.805,35.01 -1.945,15.07 4.375,30.15 8.508,44.49 0.731,-5.59 1.461,-11.18 1.945,-16.78 5.59,-0.24 10.938,0 16.289,-0.48 7.536,-5.59 13.372,-12.88 19.934,-19.45 8.75,3.65 14.582,10.94 16.77,20.18 6.808,-0.25 13.617,-0.49 20.421,-0.73 -5.593,-32.82 -11.425,-65.64 -17.257,-98.45 -5.836,-30.39 3.402,-62.24 20.66,-87.27 14.586,-22.37 36.707,-38.18 58.59,-53 30.629,-23.82 60.527,-49.11 95.047,-67.09 19.449,-11.19 42.785,-5.11 64.175,-6.57 -0.484,-26.01 -0.484,-52.27 6.321,-77.54 2.675,-13.13 8.265,-25.53 11.914,-38.41 1.457,-20.91 -0.242,-42.06 0.726,-63.21 -0.968,-4.38 3.891,-5.84 6.567,-8.02 -21.149,-0.98 -38.899,-14.34 -54.211,-27.47 -15.559,-12.15 -26.742,-30.88 -28.199,-50.56 5.832,-9.97 11.425,-20.91 20.664,-28.45 9.238,-2.18 19.203,-2.91 26.011,-10.21 31.114,-30.38 79.735,-34.27 119.602,-22.85 20.906,5.35 37.437,18.96 54.937,30.39 15.075,2.92 31.118,-0.73 45.703,4.86 27.715,8.02 47.887,29.66 64.418,52.27 20.422,1.94 37.682,-9.97 54.942,-18.96 0.97,19.2 -1.95,38.64 1.94,57.61 1.22,-7.05 1.46,-14.1 1.95,-21.4 16.29,-2.42 24.55,13.13 37.43,19.7 5.36,3.89 12.4,5.59 15.56,11.66 8.03,13.13 13.86,27.48 17.26,42.3 30.88,5.11 58.35,21.15 86.55,34.04 -12.4,3.64 -24.07,10.45 -32.33,20.66 7.77,7.29 16.53,14.1 27.22,16.77 19.45,6.32 40.35,2.68 60.04,8.27 34.28,8.51 69.04,14.59 102.83,25.04 57.13,16.04 116.69,23.09 176,22.6 91.41,3.89 182.57,-4.61 273.24,-14.34 97.73,-10.21 195.21,-23.09 292.69,-36.22 41.81,-2.19 83.87,-4.86 125.43,1.95 61.99,9.72 120.58,33.79 175.76,62.96 21.39,10.94 41.32,26.25 54.45,46.67 10.22,15.8 1.22,39.87 -17.01,44.49 -18.47,4.62 -37.68,3.4 -56.4,1.46 -79.25,-14.1 -153.15,-47.65 -231.18,-65.64 -69.29,-17.01 -140.51,-25.52 -211.98,-23.58 -100.89,-1.7 -207.36,13.12 -291.95,72.2 -22.61,15.56 -45.71,34.28 -53,62.23 -7.54,33.79 4.62,71.71 30.87,94.81 27.23,24.31 63.21,35.49 98.45,40.84 51.05,9.24 103.32,8.75 155.1,8.51 8.99,-0.25 20.66,0.48 24.79,9.96 3.65,9.97 3.41,20.91 1.71,31.12 -2.19,11.67 -18.97,14.83 -26.75,7.54 -7.78,-9.48 -5.83,-22.85 -7.29,-34.28 -17.26,4.86 -33.06,12.89 -49.83,18.96 -6.8,-1.94 -9.73,-10.21 -16.78,-12.15 -19.44,-7.54 -40.59,-5.6 -61.01,-5.84 -31.85,0.49 -64.9,-1.7 -95.54,8.51 -11.91,3.65 -19.45,15.8 -19.45,27.96 0,10.93 -0.48,22.61 4.87,32.57 2.91,6.32 10.45,7.29 16.28,9.24 0.25,-7.78 0.25,-15.56 0.49,-23.34 z M 966.18,2730.3 c -11.184,21.63 -6.563,49.1 8.754,67.33 3.16,-5.83 3.886,-14.83 11.183,-17.26 9.238,-3.16 19.443,-1.46 29.173,-2.19 -0.25,-23.58 -14.1,-45.7 -33.794,-58.34 -7.293,-1.7 -12.398,4.62 -15.316,10.46 z m 28.929,147.07 c -4.132,-17.02 5.841,-33.07 15.561,-46.19 -5.35,-5.35 -10.46,-10.94 -16.049,-16.05 -16.769,1.95 -33.543,7.78 -47.398,17.51 -12.16,7.78 -6.325,23.58 -7.782,35.49 -5.836,-0.25 -11.914,-0.49 -17.988,-0.73 -0.73,-16.29 -3.16,-33.79 5.348,-48.38 6.32,-11.67 18.23,-18.47 29.414,-24.79 -4.375,-4.13 -9.238,-7.53 -11.914,-12.89 -4.86,-9.48 6.566,-16.04 10.941,-23.09 -6.324,-9.48 -13.855,-19.69 -12.398,-31.6 0.484,-9.97 7.293,-17.75 13.371,-24.8 21.148,3.65 40.109,14.1 60.525,19.94 17.02,2.67 12.4,24.3 15.08,36.7 24.06,-0.97 50.07,-0.97 70.74,13.13 7.78,4.62 10.21,13.86 10.45,22.36 -8.99,-1.21 -21.63,4.38 -27.96,-4.62 -3.4,-3.64 -6.56,-8.5 -12.15,-8.26 -20.66,0.24 -40.11,8.26 -59.8,13.13 5.59,11.91 11.42,23.58 16.77,35.73 7.78,-3.64 16.77,-9.96 25.28,-4.37 9.24,3.89 16.84,9.66 18.54,18.9 4.62,1.21 4.8,6.62 9.17,7.84 -4.13,6.32 -8.75,12.39 -14.09,17.5 -0.49,-6.56 -4.93,-8.93 -4.93,-15.26 -8.5,-2.18 -12.57,-9.05 -20.6,-12.45 -8.51,4.61 -17.74,8.02 -25.76,13.37 -5.11,9.72 -3.89,21.15 -4.38,31.6 -6.81,-1.46 -14.588,-2.68 -17.991,-9.72 z m 127.621,12.64 c -5.83,5.1 -11.67,10.2 -17.5,15.31 -6.56,-6.56 -13.13,-13.12 -19.45,-19.93 14.83,-14.1 35.74,-18.23 55.43,-17.75 3.4,10.45 9.97,19.2 16.53,27.72 8.26,11.18 -0.73,31.6 -16.04,27.95 -12.89,-5.83 -16.78,-20.42 -18.97,-33.3 z m -146.824,88.97 c 0,-12.16 -0.73,-24.31 0.239,-36.22 11.671,-13.86 25.525,-25.53 38.175,-38.41 7.77,11.18 14.82,23.1 18.22,36.22 -11.66,0 -22.84,2.43 -29.65,12.64 3.89,3.16 8.02,5.84 11.91,9 -3.65,5.59 -5.84,14.1 -13.37,15.56 -8.508,1.69 -17.02,0.96 -25.524,1.21 z m -49.105,99.91 c 8.508,9 21.39,9.73 32.574,12.4 -16.773,-20.91 -22.121,-54.94 -0.246,-74.63 11.426,14.59 17.016,32.33 25.527,48.38 10.211,16.28 28.934,26.98 48.374,26.01 -5.83,-8.51 -13.12,-16.78 -14.83,-27.23 2.19,-4.13 5.59,-7.53 9,-10.94 9.48,11.67 19.93,23.58 34.28,29.66 13.85,7.29 29.65,8.02 44.97,8.26 -6.81,-9.23 -12.65,-18.96 -15.07,-30.14 5.83,-2.68 11.66,-8.51 18.71,-6.08 13.62,3.65 23.1,15.07 31.36,25.77 2.68,3.16 1.46,7.54 1.94,11.18 20.91,0.73 34.28,-18.23 36.96,-37.19 -2.43,-7.78 -10.46,-14.1 -8.51,-23.09 2.19,-4.62 4.86,-9.24 8.02,-13.13 5.35,-3.65 7.53,3.16 10.21,6.56 4.86,9.48 6.32,19.94 8.51,30.15 15.07,-10.46 27.22,-26.01 28.2,-44.74 2.67,-31.84 -12.89,-60.52 -27.47,-87.51 5.35,-1.94 10.45,-5.1 16.29,-5.59 11.67,4.38 14.58,17.75 19.93,27.71 6.81,-28.68 8.02,-58.82 3.65,-88 -5.35,-30.14 -30.15,-52.5 -58.1,-62.47 -0.49,-22.85 -2.44,-48.14 -18.48,-65.88 -4.62,-6.32 -12.64,-8.02 -19.69,-9.72 -1.95,9.72 -6.32,19.2 -16.77,21.87 -0.25,-13.85 -4.14,-31.11 7.78,-41.81 10.69,-9.48 27.22,-16.77 41.08,-9.24 8.75,5.84 11.67,17.26 13.37,27.48 2.18,9.72 -4.86,17.98 -8.99,26.25 9.72,-2.43 20.41,-4.38 27.22,-12.64 15.31,-17.75 12.15,-48.86 -7.53,-62.47 -21.15,-16.05 -48.38,-22.37 -74.39,-22.61 5.59,-16.29 21.63,-24.32 35.49,-32.58 1.7,-7.78 -9.48,-11.43 -15.56,-12.88 -12.88,1.45 -25.04,6.32 -37.68,9.23 0,-35 -15.55,-68.06 -39.62,-93.1 -1.46,24.8 -0.73,52.75 -17.75,72.93 -22.85,-25.77 -35.01,-59.08 -35.97,-93.35 -3.89,3.65 -9.48,6.32 -9.73,12.15 -5.833,39.38 3.89,80.71 -9.239,119.12 -10.453,-21.64 -13.125,-45.94 -10.453,-69.77 2.434,-31.84 1.461,-69.28 -23.82,-92.37 -16.047,-16.29 -39.379,-18.72 -60.532,-22.13 13.856,29.66 20.176,62.24 19.688,94.57 -5.102,2.18 -9.965,4.37 -15.07,6.32 -0.727,-38.41 -7.051,-80.47 -36.219,-108.42 -20.422,-22.37 -52.024,-30.14 -81.438,-29.42 -23.093,-0.48 -49.105,4.14 -63.933,23.83 -7.535,10.93 -15.801,25.52 -9.969,38.89 4.133,9.24 14.59,12.4 23.098,15.56 2.429,-7.54 5.832,-15.07 12.64,-19.93 -8.511,13.36 -17.015,28.93 -12.883,45.46 3.645,7.04 11.907,8.5 18.715,11.42 2.918,-6.56 3.649,-17.02 12.157,-18.72 11.668,-1.22 25.523,-1.22 35.003,6.81 7.778,7.05 6.563,18.23 7.293,27.96 1.704,27.22 12.157,52.99 17.989,79.48 -15.801,-0.72 -24.551,-16.04 -29.657,-29.16 -8.507,-22.86 -17.257,-49.11 -4.863,-72.2 -15.316,14.09 -32.086,29.17 -38.648,49.59 -4.621,41.81 16.285,82.89 45.941,111.09 5.836,6.57 13.613,10.21 20.906,14.34 2.434,4.87 -2.187,10.21 -7.05,9 -20.418,-5.35 -40.11,-18.23 -49.832,-37.44 -6.079,-11.18 -6.567,-24.31 -9.481,-36.46 -9.48,14.83 -13.855,32.81 -16.289,50.32 1.461,16.28 8.266,31.36 13.129,46.92 -11.914,11.66 -23.578,23.82 -35.734,35.49 1.211,16.29 4.617,34.03 17.746,45.45 9.965,10.7 25.769,14.84 39.625,10.7 10.207,-2.91 15.8,-12.88 21.148,-21.39 -6.32,-0.24 -12.398,-0.48 -18.476,-0.73 -0.973,-9.97 -1.215,-20.42 -0.243,-30.39 11.18,-1.45 22.606,-2.43 33.547,-0.48 8.992,1.7 15.317,10.45 15.559,19.2 1.941,22.36 0.73,45.22 7.289,66.85 2.191,7.54 8.754,12.4 13.859,17.99 -8.508,12.4 -16.043,27.47 -11.91,42.79 5.832,16.04 18.719,28.93 33.789,36.46 -1.703,-8.02 -3.89,-16.04 -5.836,-24.07 1.461,-1.94 4.621,-5.83 6.324,-8.02 4.618,1.46 9.235,2.68 13.856,3.89 3.644,16.29 -12.398,26.26 -17.504,39.87 -3.406,48.86 26.981,92.37 62.719,122.76 z M 351.637,2421.57 c 4.621,0.48 8.996,0.97 13.613,1.21 4.133,-13.61 6.563,-30.39 -2.43,-42.54 -9.48,-14.83 -11.91,-32.58 -14.097,-49.59 -22.121,7.53 -25.285,34.03 -21.395,53.96 3.891,15.08 19.934,22.12 24.309,36.96 z m -9.239,194.47 c 14.586,5.59 30.387,3.89 44.243,-2.68 0.246,-13.85 0.246,-27.71 0,-41.56 -20.903,-1.46 -39.379,9.72 -59.555,13.61 -14.098,2.19 -26.012,-7.05 -37.195,-14.34 12.64,19.69 29.656,38.16 52.507,44.97 z m 114.258,53 c 23.336,-1.95 37.438,-23.58 49.102,-41.58 7.781,-10.69 8.508,-24.3 10.699,-36.94 -12.641,0 -25.527,0 -38.168,0 -5.348,16.77 0,35 -6.074,51.53 -3.16,10.21 -10.211,18.24 -15.559,26.99 z m -170.168,250.14 c 7.535,6.32 18.231,5.35 27.469,5.59 5.59,-0.48 12.645,1.7 16.773,-3.65 0.973,-8.26 1.704,-17.01 -0.726,-25.04 -4.133,-9.72 -15.801,-11.18 -24.555,-14.1 2.918,-5.59 5.832,-10.93 8.508,-16.53 -14.828,5.35 -31.844,12.89 -38.164,28.45 -4.133,9.72 3.402,19.44 10.695,25.28 z m 3.645,150.96 c 7.051,10.45 16.047,24.55 30.633,22.36 22.121,-0.72 31.113,-26.73 28.687,-45.45 0,-10.21 -10.945,-12.64 -18.476,-15.56 -11.184,9.23 -21.395,19.93 -25.528,34.28 -5.101,1.45 -10.207,2.91 -15.316,4.37 z m 129.328,39.87 c 15.312,-1.46 30.633,-6.56 42.301,-16.29 13.125,-11.18 18.718,-29.17 16.527,-45.94 -0.973,-8.76 -9.48,-17.02 -18.473,-14.83 -6.566,3.64 -12.156,8.99 -16.531,15.07 -6.32,9.23 -5.347,21.15 -9.48,31.12 -4.375,10.45 -10.453,20.17 -14.344,30.87 z M 1619.62,2203.02 c -2.19,8.75 4.37,16.78 11.91,20.18 7.29,1.94 15.07,1.46 22.36,0.24 7.3,-7.53 3.16,-20.17 10.7,-27.23 9,-8.01 21.88,-7.77 33.06,-9.72 -9.97,-9.48 -21.88,-18.72 -36.46,-18.23 -18.72,2.19 -39.14,14.58 -41.57,34.76 z m 854.23,34.52 c 5.11,7.3 15.32,6.08 23.1,4.38 10.69,-6.08 11.18,-19.21 14.58,-29.66 7.05,-8.27 15.08,-16.05 16.53,-27.23 -10.21,-3.64 -20.9,-8.26 -31.85,-4.86 -12.88,2.92 -27.95,9.24 -32.33,23.1 -2.18,12.15 3.17,24.55 9.97,34.27 z m -136.13,4.38 c 5.1,4.86 13.13,11.91 19.93,6.32 6.33,-5.35 17.75,-4.86 20.91,-13.37 5.59,-16.29 -16.53,-25.53 -13.37,-41.81 5.11,-3.65 10.45,-6.33 15.56,-9.73 -17.02,1.7 -30.63,13.62 -40.6,26.74 -6.08,9 -9.48,22.37 -2.43,31.85 z m -779.36,36.71 c 10.21,4.61 17.26,-7.3 22.85,-13.86 7.05,-9.48 3.65,-21.39 -0.97,-31.12 6.56,-7.29 16.53,-8.51 25.28,-10.94 -13.86,-6.8 -29.66,-7.05 -44.49,-5.1 -11.42,2.67 -23.58,12.88 -21.39,25.52 1.46,13.37 5.59,29.17 18.72,35.5" /><path
         id="path22"
         style="fill:#ed1c24;fill-opacity:1;fill-rule:evenodd;stroke:none"
         d="m 1409.34,452.496 c 9,1.461 22.12,2.922 26.75,-7.535 2.66,-10.938 1.69,-22.852 0.96,-34.273 -1.21,-13.129 -17.01,-19.45 -28.19,-14.102 -9.49,6.805 -10.94,19.691 -11.67,30.387 -0.73,9.484 1.94,21.879 12.15,25.523 z m -27.47,34.766 c 0.25,-5.836 0.25,-11.426 0.49,-17.262 -7.05,-2.672 -15.32,-5.59 -17.02,-14.098 -2.92,-15.074 -13.61,-26.254 -20.17,-39.625 6.07,0 12.39,-0.242 18.71,-0.242 -0.24,-12.398 -0.97,-31.605 14.59,-35.008 13.61,-0.73 22.61,-11.425 33.06,-18.23 8.26,-1.945 16.77,-2.918 25.04,-1.703 8.27,0.242 7.78,10.453 10.45,16.289 8.02,2.43 17.99,3.402 23.09,10.937 2.68,8.996 1.22,18.477 1.46,27.715 6.57,0 13.13,0 19.7,0.242 -3.89,10.696 -11.92,18.961 -17.75,28.442 -1.7,7.777 -1.7,15.801 -2.43,23.824 -6.08,0 -12.16,-0.242 -18.48,-0.242 0,6.316 0.25,12.64 0.25,18.961 -23.58,0 -47.16,0 -70.99,0 z m 35.49,59.312 c 2.68,-6.074 2.43,-14.097 8.03,-18.476 7.05,-1.453 14.09,-0.969 21.15,-1.453 10.2,-11.184 18.47,-24.067 28.68,-35.497 11.42,-3.16 22.85,-7.535 32.09,-15.312 6.32,-6.078 15.56,-3.891 23.58,-4.617 -3.16,-13.129 -11.43,-23.828 -19.21,-34.524 3.41,-5.105 8.27,-9.722 9.24,-16.285 -2.67,-9.238 -6.8,-18.23 -13.37,-25.527 -8.02,-7.535 -3.4,-19.93 -8.02,-29.168 -3.16,-5.11 -9.24,-7.293 -14.1,-10.453 3.16,-11.426 6.56,-22.852 8.27,-34.766 -10.22,6.809 -18.24,19.207 -31.61,18.719 -7.53,0.488 -13.37,-5.348 -19.93,-8.262 -8.02,2.914 -15.8,6.805 -24.07,8.262 -8.26,-1.215 -15.55,-5.59 -23.58,-6.805 -8.99,1.457 -17.01,8.266 -26.25,6.317 -9.72,-3.887 -16.78,-11.907 -25.28,-17.743 5.83,9.969 12.15,19.934 15.31,31.114 -6.08,3.648 -12.4,6.566 -18.96,8.996 -5.35,11.91 -5.35,24.554 1.22,35.492 -10.7,9.48 -15.8,23.094 -15.32,37.195 0.49,15.071 -8.75,27.465 -19.21,37.438 7.78,0.726 16.78,-1.461 22.61,4.617 9.97,9.723 23.83,12.641 36.23,17.258 6.32,9.484 11.42,19.933 20.17,27.715 7.78,7.777 19.94,6.074 29.66,8.996 0.97,5.59 1.7,11.179 2.67,16.769 z m 704.49,588.536 c 14.1,5.83 38.65,0 35.74,-19.45 1.21,-18.47 -21.15,-22.61 -35.01,-18.23 -8.99,8.51 -3.64,23.09 -4.37,34.03 0.97,0.97 2.67,2.68 3.64,3.65 z m -709.35,-0.49 c 10.21,2.68 21.39,3.16 31.85,0.73 17.5,-5.35 15.8,-37.44 -3.16,-38.89 -13.62,0 -30.63,-2.68 -40.35,8.75 -8.76,10.69 -0.98,26.74 11.66,29.41 z m -692.086,0.49 c 10.211,2.67 21.149,2.43 31.113,0.24 8.754,-10.45 4.621,-26.25 2.192,-38.65 -12.156,1.7 -29.903,-6.08 -37.684,6.08 0.246,10.69 -3.648,24.06 4.379,32.33 z m 1364.006,33.79 c -15.08,-7.05 -2.44,-22.36 0.24,-33.31 -9,-10.21 -19.45,-20.9 -20.42,-35.49 7.05,-0.48 14.1,-0.73 20.9,-1.21 -9.72,-3.41 -19.93,-8.51 -20.42,-20.43 9.73,-5.34 20.91,-6.8 31.36,-10.93 7.54,-7.3 7.3,-22.37 20.67,-23.34 8.5,5.1 14.34,13.61 21.88,20.18 0.48,-7.05 0.73,-14.1 0.97,-21.15 18.72,8.51 31.6,26.98 52.02,31.36 0,6.8 -0.24,13.61 0.49,20.17 0.48,7.05 7.78,12.89 4.86,20.18 -3.89,11.91 -5.84,24.07 -7.78,36.46 -4.13,6.81 -10.21,12.4 -16.29,17.27 -8.26,1.94 -18.47,-0.25 -22.36,9.23 -4.62,-2.43 -9.24,-5.59 -14.1,-7.78 -8.03,0.25 -15.32,4.62 -22.85,7.3 -8.51,-7.05 -18.96,-7.54 -29.17,-8.51 z m 22.36,37.68 c 12.4,3.89 21.88,12.88 30.87,21.88 2.44,-5.35 3.65,-11.92 9,-15.32 6.8,-4.86 16.53,-2.19 22.85,-8.02 9.96,-9.48 25.04,-12.89 30.14,-26.98 14.59,-5.35 23.58,-20.43 39.63,-22.13 4.13,-0.72 8.5,-1.21 12.64,-1.7 -6.08,-3.16 -14.1,-4.61 -16.53,-11.91 -4.14,-10.21 -2.43,-21.39 -4.86,-31.85 -2.92,-10.21 -11.67,-16.77 -16.54,-25.76 -1.94,-13.86 -0.48,-27.96 -0.48,-41.82 -5.84,-2.67 -11.67,-5.59 -17.02,-8.99 5.84,-4.62 12.4,-8.75 18.72,-13.13 -9.72,2.19 -19.21,5.6 -28.2,9.24 -12.15,-10.21 -28.44,-7.29 -43.02,-7.54 -12.4,0 -24.56,-0.24 -36.71,0 -9,-0.48 -15.07,8.27 -24.07,7.78 -7.78,0.49 -13.86,-5.1 -20.42,-8.02 3.4,19.21 -13.61,31.6 -17.02,49.35 -1.7,7.54 -1.46,15.55 -2.43,23.09 -4.86,7.54 -11.67,13.86 -17.74,20.43 8.99,11.66 8.99,27.46 -0.49,38.89 5.11,1.46 10.45,3.16 15.56,4.62 1.22,4.62 2.43,9.24 3.64,13.86 26.75,-1.71 39.15,26.98 62.48,34.03 z m -726.61,-36.47 c -6.32,-13.37 -9.72,-27.95 -15.8,-41.32 -0.98,-16.77 -0.49,-33.55 0.24,-50.33 10.21,-8.26 27.47,-2.67 34.03,-15.8 4.87,-7.04 7.54,-16.04 16.54,-19.2 3.89,10.21 10.69,18.48 21.63,21.15 0.49,-7.05 0.97,-14.34 1.46,-21.88 4.37,2.92 10.7,4.62 11.91,10.46 3.65,17.99 25.04,18.95 39.87,21.14 -0.73,19.21 0.73,38.65 -0.73,57.86 -5.84,11.91 -9.72,24.31 -14.1,36.95 -11.67,0 -23.58,1.22 -32.82,9.24 -2.43,-3.41 -4.86,-6.56 -7.53,-9.97 -7.3,2.68 -14.1,6.08 -20.67,9.97 -9.96,-7.29 -21.63,-9.72 -34.03,-8.27 z m 32.82,45.46 c 6.56,6.08 13.86,11.43 22.61,14.34 2.18,-5.1 3.15,-11.18 7.29,-15.55 6.81,-5.35 16.04,-5.11 24.31,-6.32 4.13,-7.06 7.53,-14.34 12.4,-20.91 7.78,-7.78 18.72,-10.45 28.2,-15.56 4.13,-3.64 6.8,-8.75 11.42,-11.91 9.73,-4.86 20.66,-4.13 31.12,-4.86 -22.13,-6.32 -21.39,-31.6 -23.34,-50.32 -9.24,-9 -14.34,-21.15 -17.26,-33.79 -3.4,-17.02 -19.2,-29.42 -17.26,-47.89 -4.86,2.91 -9.48,5.83 -14.1,8.75 -2.18,-3.16 -4.13,-6.08 -6.32,-9.24 -29.9,0.73 -59.8,-0.24 -89.46,0.49 -2.67,2.43 -5.35,5.1 -7.78,8.02 -4.62,-3.16 -8.99,-6.56 -13.61,-9.73 -0.49,6.57 -0.25,13.13 -0.97,19.7 -3.89,7.05 -9.48,13.37 -12.64,20.9 -4.62,10.45 -3.17,21.88 -4.62,32.82 -5.59,7.78 -13.13,14.34 -17.26,23.34 -2.68,7.53 -2.19,15.8 -4.38,23.33 -1.21,7.78 -9.96,9.49 -15.55,13.37 14.58,0.74 34.76,0.74 39.38,18 17.5,0.97 31.11,13.12 38.65,28.19 5.34,11.67 20.91,7.05 29.17,14.83 z m -730.498,-46.19 c -0.488,-14.09 1.457,-28.44 -1.219,-42.54 -4.617,-9.96 -13.371,-17.02 -18.96,-26.5 7.05,-0.48 14.343,-0.97 21.39,-1.45 -3.398,-2.19 -6.805,-4.38 -9.965,-6.32 4.375,-8.27 7.051,-18.48 16.289,-22.86 8.75,-4.85 11.911,-15.07 17.989,-22.6 6.074,-3.65 13.125,-2.68 19.691,-1.7 3.402,6.07 6.316,12.39 9.481,18.47 0.484,-6.81 0.726,-13.86 1.214,-20.66 18.473,8.26 30.871,27.71 51.536,31.11 -0.727,12.16 -0.727,24.8 7.05,34.77 -5.109,13.61 -6.808,27.95 -8.996,42.29 -6.32,11.19 -16.531,21.16 -28.929,25.29 -8.508,3.4 -16.286,-2.68 -23.333,-6.81 -7.781,2.43 -15.316,5.59 -23.343,6.56 -9.235,-4.61 -19.446,-7.29 -29.895,-7.05 z m 53.481,57.62 c 2.914,-5.59 5.347,-12.89 11.906,-15.56 8.269,-2.43 17.75,-2.43 23.828,-9.48 6.805,-7.05 18.473,-8.51 22.363,-18.23 3.891,-9.97 17.016,-9.24 22.852,-17.51 8.023,-9.24 20.66,-10.45 31.844,-12.15 -6.078,-3.4 -13.614,-6.32 -15.801,-13.61 -6.809,-13.62 -0.242,-31.36 -11.668,-42.55 -3.649,-4.86 -7.051,-9.96 -9.965,-15.31 6.563,-10.21 11.18,-24.55 4.129,-35.98 -5.59,-6.08 -13.613,-8.99 -20.176,-13.86 5.348,-3.88 11.184,-7.53 16.531,-11.67 -9.48,1.71 -18.472,5.36 -27.226,9.24 -4.863,-2.91 -9.238,-7.78 -15.07,-7.78 -21.395,-0.24 -42.543,0 -63.934,0 -7.781,-0.72 -13.617,4.87 -19.938,8.03 -8.265,-2.92 -16.285,-6.08 -24.55,-9 -0.243,9.24 -1.703,18.48 -5.348,26.99 -4.379,11.18 -3.645,23.09 -6.32,34.52 -2.676,9.96 -10.696,17.01 -15.317,25.76 0.246,5.84 5.59,9 7.778,13.86 -3.645,11.67 -11.664,21.39 -18.719,30.88 5.105,1.7 10.457,3.39 15.562,5.34 1.457,4.62 2.672,9.24 3.887,13.86 9.727,0.48 19.934,0 29.414,3.89 6.078,2.43 7.535,9.72 11.43,14.58 7.047,4.38 14.34,8.51 21.148,13.13 7.047,5.59 17.012,4.38 24.793,9.24 2.676,4.13 4.375,8.99 6.567,13.37 z m 1429.877,811.93 c 11.19,1.95 24.07,0.25 32.58,-7.78 8.99,-7.77 12.15,-19.93 15.07,-30.87 -13.13,-11.91 -30.63,-21.64 -48.86,-17.74 -10.94,4.86 -9.73,18.23 -9.73,27.95 -0.24,10.21 -0.48,24.07 10.94,28.44 z m -750.19,-0.77 c 5.35,6.32 13.86,0.24 19.94,-1.95 13.37,-5.83 21.14,-19.93 20.9,-34.27 -10.45,-9.97 -22.85,-18.48 -37.68,-19.45 -7.53,7.54 -15.07,15.07 -22.61,22.61 3.65,12.4 9.49,24.31 19.45,33.06 z m -758.449,-6.28 c 7.043,6.81 17.258,7.54 26.492,8.27 7.539,-11.43 14.102,-23.58 17.988,-36.71 -7.531,-7.53 -14.828,-15.07 -22.605,-22.61 -14.832,1.71 -26.981,11.19 -37.438,21.15 2.918,10.95 6.325,22.61 15.563,29.9 z m 1491.869,49.35 c -8.51,-7.29 -19.45,-8.02 -30.14,-8.75 -8.51,-7.05 -6.57,-20.66 -9.73,-30.63 -5.1,-8.02 -10.94,-15.8 -14.1,-24.8 0,-7.53 7.05,-12.88 7.3,-20.42 0.72,-10.93 0.23,-22.12 0.23,-33.06 9.24,-3.16 18.97,-5.83 27.97,-9.96 7.28,-6.32 11.42,-16.53 21.14,-20.42 14.1,-5.6 30.39,-5.11 45.22,-3.16 17.74,7.54 30.14,25.28 49.59,29.17 0.24,7.78 0.24,15.8 0.24,23.58 10.21,2.67 16.29,10.69 19.21,20.42 -6.08,9.73 -13.62,18.72 -18.24,29.17 -2.43,15.07 -6.31,32.58 -20.9,40.6 -9.73,-0.25 -18.72,1.94 -26.74,7.78 -9,-0.73 -17.5,-5.11 -26.26,-6.81 -8.51,1.22 -16.53,4.86 -24.79,7.29 z m 18.23,53.48 c 2.43,5.11 4.62,9.97 6.81,15.08 14.58,-10.46 30.63,-17.99 48.61,-20.43 14.59,-10.2 17.27,-33.79 36.96,-36.7 16.04,-2.19 26.74,-15.56 31.6,-30.15 10.94,-2.91 22.36,-3.64 33.55,-5.1 -9.97,-3.41 -21.88,-6.32 -26.75,-17.02 -0.24,-9.24 6.81,-17.01 7.3,-26.25 -3.41,-11.91 -11.18,-21.88 -16.78,-32.82 -2.43,-11.43 -2.43,-23.34 -7.29,-34.28 -4.37,-12.15 -14.1,-21.15 -21.87,-31.36 4.13,-9.23 8.26,-18.47 9.96,-28.44 -7.53,5.11 -14.1,11.43 -20.91,17.26 -6.8,-4.86 -12.88,-10.94 -20.17,-15.55 -17.75,3.64 -33.55,13.12 -50.81,18.23 -15.8,2.18 -23.58,-15.08 -37.68,-18.23 -10.94,5.34 -20.18,14.82 -33.06,15.55 -2.19,-5.59 -3.89,-11.42 -5.83,-17.02 -1.95,19.7 -13.13,36.23 -27.72,48.87 0.49,15.07 4.13,29.65 7.06,44.24 -9.49,3.4 -21.4,6.08 -24.81,16.77 -3.15,9.97 2.92,18.96 7.3,27.23 -4.86,11.91 -11.42,22.85 -18.72,33.3 10.94,3.41 23.1,5.84 31.36,14.1 5.1,4.87 6.81,12.16 9.72,18.24 10.22,3.88 20.91,5.34 31.85,5.1 1.7,8.27 3.16,17.5 9.72,23.58 10.22,11.18 26.26,13.61 40.6,15.8 z m -777.66,-55.66 c -8.51,-5.35 -18.23,-6.08 -28.2,-6.08 -7.78,-11.67 -2.19,-24.31 1.94,-35.98 -5.1,-7.05 -13.6,-11.67 -16.03,-20.18 -1.47,-9.97 -0.49,-20.18 -0.49,-30.38 6.32,-0.73 12.39,-1.47 18.72,-2.44 -10.21,-3.4 -20.18,-8.99 -19.7,-21.15 10.46,-4.37 21.88,-5.59 32.82,-8.02 10.21,-9.24 19.93,-18.96 28.93,-29.17 15.32,3.65 34.04,0 45.7,12.15 11.43,9.24 23.58,17.27 36.71,23.58 3.16,5.11 5.59,10.46 8.51,15.57 -2.19,1.94 -6.81,5.34 -9,7.04 6.08,0.97 12.4,1.71 18.48,2.44 0,7.28 0.97,14.82 -0.97,21.87 -3.65,8.75 -10.7,15.08 -15.32,23.1 -3.89,5.83 1.95,10.69 4.38,15.8 5.83,7.78 2.92,20.42 -5.11,25.52 -10.93,0 -20.66,3.16 -30.14,8.03 -13.61,1.46 -26.5,-4.62 -39.87,-6.08 -9.97,3.16 -20.9,9.97 -31.36,4.38 z m 28.44,72.92 c 9.97,-3.64 18.72,-9.72 27.47,-16.04 8.03,-6.57 21.4,-3.16 27.71,-12.64 6.33,-9.49 11.19,-20.18 20.43,-27.23 9.72,-2.92 21.63,0.24 29.9,-7.05 6.8,-5.59 5.83,-15.31 8.02,-23.09 11.18,-6.08 23.82,-7.05 36.22,-8.27 -18.96,-5.59 -19.93,-27.47 -20.91,-43.76 1.46,-14.34 -12.15,-22.6 -16.77,-34.51 -0.97,-13.38 -0.24,-27.72 -7.78,-39.39 -3.89,-8.02 -12.15,-14.34 -10.94,-23.82 -0.24,-9.72 0,-19.2 0,-28.93 -2.92,5.84 -5.35,11.91 -8.26,17.74 -12.16,-1.45 -20.91,-9.72 -30.63,-16.03 -17.75,3.89 -33.55,12.88 -50.57,18.47 -11.91,-8.51 -25.52,-15.8 -40.11,-18.23 -9.48,6.56 -18.48,14.83 -30.87,15.31 -2.43,-6.07 -4.62,-11.91 -7.05,-17.99 -0.97,12.88 0.73,25.77 -0.97,38.41 -5.11,8.51 -11.91,16.29 -15.32,26.01 -3.16,8.76 -1.45,18.48 -2.43,27.71 -4.37,7.79 -10.45,14.59 -13.85,22.86 -6.81,15.07 -7.3,32.09 -8.75,48.37 -5.11,2.68 -9.97,5.11 -15.08,7.78 10.7,2.67 23.09,3.16 31.36,11.43 6.08,5.83 4.62,17.01 12.64,20.9 9.48,6.08 21.15,4.62 31.61,5.59 7.53,9.48 14.09,19.94 21.14,29.66 5.84,7.78 16.78,5.35 24.56,9.24 4.62,4.62 6.56,11.42 9.23,17.5 z m -794.188,-77.79 c -6.074,-0.97 -12.152,-0.73 -17.988,-0.97 -1.699,-5.35 -3.891,-10.45 -4.863,-15.8 -0.485,-10.45 12.16,-20.42 3.648,-30.39 -4.617,-10.7 -19.933,-19.45 -13.371,-32.09 1.703,-8.02 10.695,-8.75 16.777,-11.66 -2.675,-1.95 -5.351,-3.89 -7.781,-5.84 9.239,-21.64 32.817,-28.93 50.321,-42.54 9.48,-7.05 22.363,-7.05 33.546,-4.62 14.102,5.35 24.309,17.26 38.411,22.61 9.238,5.1 21.632,3.64 29.414,11.67 4.859,11.66 -10.211,15.56 -17.993,18.96 6.079,1.45 12.157,2.92 18.477,4.37 0.246,8.27 0.973,17.02 -0.242,25.28 -3.403,9.73 -10.211,17.51 -17.016,25.04 7.047,10.7 7.778,23.1 2.43,34.77 -10.695,-0.25 -21.152,2.19 -30.875,6.32 -9.965,5.1 -19.199,-2.92 -28.684,-5.11 -11.425,0.98 -22.121,5.59 -33.304,6.81 -7.782,1.22 -14.098,-4.38 -20.907,-6.81 z m 32.336,62.96 c 7.774,5.11 14.582,11.43 23.094,15.07 2.914,-5.59 4.859,-11.91 9.477,-16.77 6.566,-4.62 15.316,-4.37 23.093,-5.59 7.293,-12.15 15.563,-23.58 25.039,-34.28 12.645,-1.21 30.875,1.47 36.465,-13.61 4.864,-16.77 22.367,-22.61 37.926,-24.31 -5.594,-3.4 -12.887,-5.59 -15.32,-12.4 -5.106,-13.12 -1.457,-27.95 -6.801,-41.08 -2.922,-8.51 -8.996,-15.31 -14.102,-22.61 -1.457,-10.69 -0.972,-21.87 -4.863,-32.33 -2.672,-8.75 -8.996,-15.8 -13.613,-23.82 -1.215,-12.89 0,-25.77 -0.485,-38.65 -4.132,5.83 -4.863,16.53 -13.613,17.01 -10.211,-2.43 -18.234,-9.97 -27.472,-14.58 -13.856,0.73 -25.036,10.2 -35.731,17.99 -17.75,-5.84 -34.766,-14.34 -53.238,-17.51 -8.996,6.81 -18.965,11.92 -29.66,15.31 -3.887,-5.34 -6.563,-11.66 -9.477,-17.74 -0.973,12.64 0.238,25.28 -0.734,37.93 -9.235,13.37 -17.743,28.19 -17.5,44.97 1.215,12.64 -9.727,20.66 -13.86,31.6 -6.078,14.34 -5.832,30.14 -7.289,45.22 -3.648,6.8 -11.914,7.53 -18.234,10.69 12.398,1.22 25.285,1.7 36.465,8.03 2.675,8.02 2.187,18.47 9.722,24.06 8.754,6.81 20.664,3.16 30.629,6.56 10.211,9.24 16.532,21.88 25.043,32.58 8.262,2.92 17.5,3.16 25.039,8.26 z m 760.392,766.48 c 14.1,6.81 29.91,-5.59 38.9,-16.29 5.35,-22.36 -20.42,-38.65 -39.38,-38.4 -7.78,11.66 -17.02,24.06 -17.99,38.16 5.59,6.08 11.91,11.67 18.47,16.53 z m 769.4,93.84 c 9.96,3.4 24.07,0.72 26.01,-11.43 1.94,-15.56 3.16,-38.65 -14.34,-45.46 -21.4,-1.7 -45.95,17.5 -42.54,40.84 7.29,9.48 19.93,12.64 30.87,16.05 z m -803.91,-39.39 c 0,-6.07 0,-11.91 0,-17.98 -8.51,-0.73 -22.13,2.91 -24.32,-9 -4.85,-9.48 2.92,-17.99 6.81,-26.01 -5.83,-6.81 -12.4,-13.13 -16.53,-21.15 -2.43,-9.72 -1.21,-19.93 -1.45,-29.66 6.8,-1.7 13.61,-3.16 20.17,-5.34 -6.32,-0.98 -12.88,-1.71 -19.44,-2.44 4.37,-5.35 8.26,-10.94 13.85,-14.83 18.96,-10.94 35.74,-24.79 54.45,-35.73 0.25,6.56 0.49,12.89 0.97,19.45 7.3,-6.81 14.1,-13.86 21.4,-20.67 17.26,10.46 33.79,21.88 48.86,35.01 4.62,6.57 4.13,15.32 5.59,23.1 5.35,0.24 10.45,0.72 15.8,1.21 -0.24,6.32 0.24,12.88 -0.73,19.45 -3.89,10.45 -13.61,17.5 -17.26,28.2 1.7,8.99 9.24,16.77 8.51,26.5 -1.7,3.88 -4.13,7.77 -6.32,11.42 -7.05,0.24 -13.85,0.24 -20.91,0.24 0,6.08 0,12.16 0,18.23 -29.89,0 -59.8,0 -89.45,0 z m 34.76,79.98 c 9.48,-8.51 16.28,-19.45 23.09,-30.14 6.32,-10.45 20.42,-7.78 29.66,-13.61 8.02,-10.7 14.1,-22.61 23.82,-31.85 9.24,-2.43 19.69,0.49 28.2,-4.13 8.75,-5.84 9.24,-17.02 10.7,-26.5 11.18,-5.35 23.58,-6.8 35.73,-6.8 -5.1,-3.9 -12.15,-6.33 -15.31,-12.41 -6.32,-13.37 -1.7,-29.16 -8.02,-42.78 -3.41,-8.51 -10.46,-14.58 -14.59,-22.61 -0.97,-10.21 0.48,-21.15 -3.4,-31.11 -2.92,-8.76 -9.49,-15.56 -14.59,-23.34 -1.94,-12.16 -0.49,-24.8 -0.49,-36.95 -3.16,4.62 -5.59,9.72 -9.47,13.61 -6.81,4.87 -15.32,5.35 -23.34,5.84 -8.02,-2.19 -14.59,-9.48 -23.34,-8.27 -8.75,0.73 -17.26,3.65 -25.77,5.59 -12.15,4.62 -22.61,-8.26 -35.01,-5.35 -9.23,2.44 -17.01,10.7 -27.22,7.3 -11.91,-0.24 -19.93,-8.75 -23.82,-19.21 -0.49,12.4 0.97,24.8 -0.73,36.96 -5.11,7.77 -11.67,14.58 -14.59,23.33 -3.64,9.97 -2.18,20.42 -3.16,30.63 -5.59,9.24 -13.37,17.02 -16.28,27.47 -5.11,13.86 -4.14,28.93 -6.81,43.27 -4.62,2.92 -9.48,4.86 -14.1,7.3 10.21,1.45 21.63,2.67 28.93,10.93 8.26,6.81 8.26,20.67 19.2,24.07 8.03,2.92 16.78,1.7 25.04,1.94 8.27,11.43 16.53,22.61 24.55,34.04 9.97,2.43 23.1,1.7 28.44,12.15 3.41,9.72 1.46,20.42 2.68,30.63 z m 724.66,-5.83 c -14.58,-5.59 -18.47,-22.13 -20.91,-35.98 -1.21,-13.13 -13.85,-20.42 -18.71,-32.09 5.59,-4.13 13.61,-6.81 16.53,-13.85 4.13,-8.27 2.92,-17.99 6.08,-26.5 11.91,-14.1 28.2,-22.12 42.05,-33.31 12.4,-8.26 23.34,6.57 27.96,16.53 0.24,-6.56 0.24,-13.37 0.48,-20.18 8.03,1.71 16.78,2.44 23.83,7.54 8.75,5.83 12.39,16.78 22.12,21.64 11.18,6.07 24.07,15.07 23.82,29.66 -0.24,9.72 1.94,19.45 8.03,27.22 -2.93,10.46 -8.76,19.69 -14.59,28.69 -1.71,10.45 -3.89,20.91 -8.51,30.63 -6.81,0.24 -13.86,0.24 -20.91,0.24 0,6.08 0,12.16 0,18.48 -22.6,-0.24 -45.21,0.24 -67.82,-0.24 -11.18,0.48 -10.21,-15.32 -19.45,-18.48 z m 38.17,70.25 c 8.99,6.32 10.69,17.75 14.34,27.47 1.7,-12.15 0.49,-26.74 9.97,-36.22 8.75,-4.86 20.18,-2.43 28.44,-8.99 9.97,-7.05 13.86,-19.45 17.75,-30.39 8.02,-0.49 16.28,0.24 24.06,-2.19 11.43,-4.13 11.67,-19.45 22.36,-24.55 8.03,-5.83 17.26,-9.24 26.75,-11.91 -6.81,-9.24 -14.59,-18.23 -17.26,-29.66 0.73,-10.94 12.88,-23.58 2.92,-33.3 -5.59,-7.3 -13.86,-10.94 -21.88,-14.83 3.16,-13.86 9.47,-28.2 6.07,-42.3 -2.91,-9.97 -14.59,-10.94 -21.87,-16.53 -2.92,-10.7 -2.44,-22.12 -2.92,-33.06 -3.65,5.83 -4.86,13.85 -10.94,17.5 -13.13,5.11 -28.44,3.65 -39.14,-5.83 -8.02,2.91 -15.56,6.32 -23.82,8.26 -14.1,-0.49 -27.47,-5.83 -41.33,-7.05 -9.23,0 -16.28,9.24 -26.01,7.05 -11.67,-1.94 -19.45,-11.67 -28.2,-18.72 1.46,11.43 4.86,22.37 6.57,33.55 -3.65,5.84 -10.94,9 -14.84,14.83 -9.72,12.15 -9.48,28.2 -10.69,42.78 -4.38,11.19 -14.1,19.94 -16.77,32.09 -4.38,10.94 10.94,19.94 5.34,31.12 -5.1,9.96 -18.23,9.96 -27.22,14.1 10.94,1.7 22.61,1.22 32.57,6.81 7.78,3.88 6.56,15.07 14.1,19.69 8.99,6.56 20.18,9.96 30.63,13.85 9.24,10.7 15.31,24.31 28.2,31.6 11.18,4.38 23.58,6.57 32.82,14.83 z M 641.648,2979.46 c 10.7,10.22 23.582,18.72 38.895,19.94 7.293,-9.24 24.07,-16.04 19.207,-29.9 -2.918,-11.67 -10.941,-21.39 -19.445,-29.41 -22.367,-1.95 -34.039,21.39 -38.657,39.37 z m -35.734,5.36 c -6.32,-6.57 -12.641,-12.89 -17.016,-20.91 5.348,-3.41 12.399,-5.59 15.801,-11.43 4.617,-8.02 4.133,-17.74 5.836,-26.5 13.125,-16.04 32.086,-25.03 48.129,-37.92 7.781,6.08 15.563,12.89 23.34,19.21 0.488,-6.81 0.488,-13.86 0.973,-20.66 11.183,6.8 20.906,16.28 33.304,21.39 13.856,7.29 28.684,16.04 35.004,31.36 -6.078,0.24 -12.156,0.73 -17.988,1.21 6.566,7.54 13.371,15.07 20.422,22.37 -0.489,13.85 -8.996,25.03 -18.235,34.52 6.321,10.45 8.262,23.09 2.43,34.51 -7.289,0.49 -14.828,0.49 -22.121,0.49 0,6.08 -0.242,12.4 -0.242,18.48 -23.336,-0.49 -46.918,0.48 -70.254,-0.49 -22.852,-13.61 -37.192,-39.38 -39.383,-65.63 z m 49.59,112.06 c 11.184,9 15.562,22.85 24.801,33.3 3.16,-11.18 0.968,-25.28 9.722,-34.52 7.047,-7.04 20.176,-2.91 25.282,-12.15 6.804,-9.97 13.855,-19.69 21.148,-29.17 9.238,-0.73 18.961,0.49 27.957,-2.92 11.18,-5.1 10.695,-19.93 20.418,-26.49 7.535,-6.57 17.746,-7.54 27.227,-9 -5.59,-3.4 -13.371,-5.1 -16.047,-11.91 -5.106,-12.88 -1.457,-27.71 -6.801,-40.6 -2.922,-8.51 -9.238,-15.56 -14.102,-23.09 -1.703,-17.75 -0.488,-35.74 -0.488,-53.49 -5.348,-3.39 -12.637,-5.34 -15.312,-11.9 -3.891,-9.24 -2.434,-19.45 -3.161,-29.18 -4.621,9.73 -10.21,22.86 -23.582,20.43 -13.371,3.15 -23.336,-9.97 -36.464,-7.54 -6.563,1.21 -12.153,4.62 -18.231,6.56 -13.371,-0.49 -25.766,-5.83 -39.137,-6.56 -8.265,1.94 -15.316,9.23 -24.066,7.29 -11.672,-1.7 -19.449,-11.67 -28.684,-17.99 2.184,11.67 5.832,22.85 8.993,34.28 -19.934,6.56 -24.555,28.93 -26.012,47.16 0.73,12.4 -10.457,20.18 -14.102,31.11 -5.832,14.59 -6.078,30.39 -7.289,45.46 -4.379,6.08 -12.398,7.05 -18.719,10.21 11.426,1.22 24.309,0.49 33.786,8.03 5.593,5.59 5.105,14.82 10.214,20.66 9.723,7.05 21.879,8.02 33.059,11.18 8.508,8.51 13.613,19.45 22.363,27.71 7.051,8.27 19.45,6.57 27.227,13.13" /></g></g></svg>